<svg width="37" height="35" viewBox="0 0 37 35" fill="none" xmlns="http://www.w3.org/2000/svg">
<path d="M35.3366 13.4034H25.8739C25.8739 13.4034 25.5597 13.333 25.4549 13.1571C25.3501 13.0164 25.3851 12.8054 25.4549 12.6647L30.1688 4.4335C30.3783 4.04657 30.2735 3.65963 29.8894 3.44858L24.1979 0.106868C23.8138 -0.104187 23.4297 0.00134042 23.2202 0.388275L18.5063 8.61943C18.5063 8.61943 18.2619 8.86566 18.0873 8.86566C17.9127 8.86566 17.773 8.76013 17.6683 8.61943L12.9544 0.388275C12.71 0.00134042 12.3259 -0.104187 11.9418 0.106868L6.18041 3.44858C5.79631 3.65963 5.69156 4.08174 5.90107 4.4335L10.6149 12.6647C10.6149 12.6647 10.7197 12.9812 10.6149 13.1571C10.5102 13.2978 10.3705 13.4034 10.1959 13.4034H0.733269C0.314258 13.4034 0 13.6848 0 14.142V20.8255C0 21.2476 0.27934 21.5642 0.733269 21.5642H10.1959C10.1959 21.5642 10.5102 21.6345 10.6149 21.8104C10.7197 21.9511 10.6848 22.127 10.6149 22.3028L5.90107 30.5692C5.69156 30.9561 5.79631 31.3431 6.18041 31.5541L11.9418 34.8958C12.3259 35.1069 12.71 35.0013 12.9195 34.6144L17.6334 26.3833C17.6334 26.3833 17.8778 26.137 18.0524 26.137C18.227 26.137 18.3666 26.2425 18.4714 26.3833L23.1853 34.6144C23.3948 35.0013 23.7789 35.1069 24.1629 34.8958L29.9243 31.5541C30.3084 31.3431 30.4132 30.9209 30.2037 30.5692L25.4898 22.338C25.4898 22.338 25.3851 22.0214 25.4898 21.8456C25.5946 21.7049 25.7342 21.5993 25.9088 21.5993H35.3715C35.7905 21.5993 36.1048 21.3179 36.1048 20.8606V14.1772C36.1048 13.7551 35.8254 13.4385 35.3715 13.4385L35.3366 13.4034Z" fill="#EC008C"/>
</svg>
