<svg width="617" height="627" viewBox="0 0 617 627" fill="none" xmlns="http://www.w3.org/2000/svg">
<path d="M252.065 599.554C252.942 590.206 256.189 583.941 261.8 580.76C266.976 577.813 273.808 576.739 282.295 577.535L301.559 579.349L301.439 580.64L296.945 580.215L292.706 625.279L297.201 625.704L297.081 627L276.047 625.023C267.335 624.205 260.967 621.808 256.946 617.837C252.926 613.866 251.297 607.77 252.07 599.56L252.065 599.554ZM283.668 578.973L281.081 578.728C276.499 578.297 273.067 579.61 270.784 582.672C268.507 585.728 267.009 591.072 266.289 598.699L265.919 602.649C264.96 612.858 266.333 619.193 270.038 621.645C271.803 622.816 274.39 623.563 277.795 623.884L279.43 624.036L283.668 578.973Z" fill="#231F20"/>
<path d="M232.627 607.383C234.98 607.944 236.511 608.935 237.225 610.374C237.938 611.806 238.085 613.413 237.661 615.184C237.241 616.954 236.348 618.289 234.986 619.188C233.624 620.081 231.837 620.267 229.619 619.738C227.402 619.21 225.844 618.289 224.934 616.976C224.03 615.658 223.806 614.04 224.264 612.106C224.722 610.177 225.642 608.767 227.026 607.879C228.41 606.991 230.273 606.822 232.627 607.383ZM243.762 605.182L227.462 601.309L234.702 570.845L230.976 569.962L231.259 568.764L251.019 573.46L250.736 574.658L247.075 573.787L240.123 603.057L244.046 603.989L243.762 605.187V605.182Z" fill="#231F20"/>
<path d="M191.484 593.366L189.288 593.813C188.553 595.049 188.831 595.899 190.116 596.362C191.963 597.021 193.391 595.937 194.409 593.104C194.807 591.988 195.123 590.647 195.341 589.084C192.868 585.728 192.236 582.34 193.461 578.929C194.687 575.519 196.817 573.291 199.852 572.25C202.892 571.21 206.422 571.411 210.459 572.855C212.132 573.454 213.809 574.25 215.487 575.241C217.808 574.718 219.072 574.152 219.29 573.552C219.508 572.953 218.239 572.158 215.493 571.172L208.928 568.818C199.187 565.326 195.575 560.08 198.081 553.091C199.432 549.316 201.977 546.848 205.708 545.693C209.44 544.538 214.42 545.077 220.636 547.305C231.232 551.108 235.71 555.303 234.065 559.89C233.171 562.379 230.905 563.501 227.26 563.262L224.024 560.14C224.814 559.018 225.408 557.901 225.811 556.784C227.135 553.096 225.049 550.263 219.557 548.297C216.212 547.098 213.412 546.799 211.162 547.393C208.912 547.992 207.457 549.212 206.798 551.059C206.139 552.906 206.242 554.333 207.114 555.346C207.986 556.359 210.05 557.454 213.314 558.62L219.557 560.859C223.033 562.107 225.316 563.578 226.4 565.272C227.489 566.972 227.724 568.666 227.119 570.36C226.509 572.054 225.468 573.28 223.986 574.032C222.51 574.784 220.091 575.503 216.746 576.195C221.219 579.398 222.537 583.549 220.701 588.654C219.546 591.873 217.46 594.052 214.436 595.196C211.412 596.34 207.583 596.079 202.946 594.417C200.157 593.415 197.967 592.026 196.382 590.244C196.224 591.497 195.973 592.592 195.635 593.535C194.774 595.937 193.505 597.446 191.833 598.056C190.16 598.667 188.531 598.688 186.946 598.122C185.36 597.555 184.233 596.678 183.568 595.496C182.903 594.314 182.833 592.99 183.356 591.535C183.879 590.075 184.652 589.133 185.682 588.703C186.711 588.272 187.768 588.25 188.863 588.643C189.958 589.035 190.754 589.65 191.255 590.479C191.756 591.312 191.838 592.271 191.495 593.36L191.484 593.366ZM206.727 612.847L205.627 612.673C205.643 610.739 205.147 609.257 204.139 608.216C203.132 607.176 201.394 606.217 198.926 605.329C196.458 604.447 194.535 604.071 193.156 604.207C191.778 604.343 190.503 605.22 189.343 606.833L188.449 606.293C191.991 598.846 196.425 596.079 201.742 597.986C205.006 599.157 206.847 601.102 207.277 603.82C207.686 606.195 207.501 609.202 206.727 612.847ZM209.446 586.224L210.693 582.748C211.723 579.872 212.181 577.834 212.055 576.625C211.93 575.421 211.363 574.637 210.355 574.272C209.348 573.912 208.438 574.152 207.626 575.002C206.814 575.846 205.845 577.84 204.722 580.972L203.589 584.126C202.391 587.471 201.819 589.749 201.868 590.953C201.922 592.156 202.451 592.941 203.458 593.3C204.466 593.66 205.425 593.388 206.329 592.478C207.239 591.568 208.274 589.482 209.446 586.224Z" fill="#231F20"/>
<path d="M191.636 558.511C192.873 562.548 192.263 566.972 189.806 571.782C187.349 576.592 183.993 579.523 179.744 580.575C175.494 581.626 171.098 580.994 166.549 578.668C157.336 573.961 155.277 567.07 160.371 558.005L177.537 566.781L178.752 564.406C180.784 560.429 181.814 557.166 181.836 554.616C181.857 552.067 180.61 550.149 178.093 548.863C173.386 546.456 169.017 547.398 164.98 551.68L163.977 550.939C166.244 548.411 168.793 546.848 171.632 546.254C174.47 545.655 177.897 546.385 181.917 548.438C187.153 551.113 190.389 554.469 191.631 558.506L191.636 558.511ZM176.862 567.963L170.591 564.76L169.066 567.745C167.388 571.036 166.434 573.373 166.205 574.767C165.982 576.162 166.445 577.153 167.6 577.747C168.755 578.341 169.937 578.134 171.136 577.137C172.34 576.14 173.734 574.075 175.336 570.954L176.862 567.969V567.963Z" fill="#231F20"/>
<path d="M129.96 553.211C131.35 554.169 133.191 554.109 135.485 553.036C137.778 551.963 139.778 550.187 141.488 547.708L151.899 532.629L147.906 529.873L148.603 528.859L166.156 540.981L165.459 541.994L162.365 539.858L145.275 564.618L148.369 566.754L147.672 567.767L134.112 558.408L137.838 553.004C136.029 554.578 134.079 555.406 131.976 555.477C129.879 555.548 127.945 554.981 126.18 553.761C124.414 552.546 123.325 551.053 122.905 549.299C122.486 547.54 122.905 545.753 124.158 543.933C125.417 542.114 126.79 541.002 128.288 540.594C129.786 540.191 131.388 540.577 133.098 541.754C134.804 542.931 135.675 544.364 135.702 546.047C135.735 547.73 134.76 549.354 132.788 550.928L130.761 549.528C128.506 550.792 128.239 552.023 129.96 553.211Z" fill="#231F20"/>
<path d="M105.581 560.718L92.8545 549.822L125.406 511.803L122.497 509.313L123.298 508.376L138.726 521.581L137.925 522.518L135.071 520.072L103.32 557.155L106.382 559.781L105.581 560.718Z" fill="#231F20"/>
<path d="M115.747 506.654C115.551 510.871 113.48 514.831 109.547 518.525C105.614 522.219 101.462 523.847 97.1094 523.406C92.7565 522.965 88.8285 520.884 85.3309 517.158C78.2486 509.618 78.6354 502.438 86.4913 495.623L99.6917 509.678L101.637 507.853C104.894 504.797 106.965 502.073 107.842 499.681C108.724 497.29 108.196 495.067 106.262 493.008C102.644 489.151 98.2098 488.563 92.9689 491.237L92.2771 490.197C95.2625 488.584 98.1935 487.974 101.065 488.366C103.941 488.764 106.921 490.605 110.01 493.896C114.036 498.183 115.948 502.432 115.752 506.654H115.747ZM98.6457 510.566L93.8243 505.434L91.3836 507.728C88.6923 510.255 87.0035 512.135 86.3225 513.371C85.6415 514.608 85.7395 515.698 86.633 516.646C87.521 517.593 88.7032 517.8 90.1687 517.267C91.6342 516.733 93.6499 515.262 96.2105 512.859L98.6511 510.566H98.6457Z" fill="#231F20"/>
<path d="M59.4642 480.87C60.4502 482.238 62.199 482.804 64.7214 482.565C67.2438 482.325 69.7281 481.328 72.1687 479.574L87.0525 468.885L84.2196 464.941L85.2165 464.222L97.6651 481.546L96.6681 482.265L94.4726 479.209L70.0386 496.761L72.2341 499.818L71.2371 500.537L61.6215 487.157L66.9496 483.327C64.716 484.204 62.5967 484.319 60.5973 483.681C58.5979 483.044 56.969 481.856 55.7214 480.113C54.4739 478.375 53.9454 476.605 54.1415 474.807C54.3377 473.009 55.3346 471.468 57.127 470.177C58.9248 468.885 60.5973 468.302 62.1445 468.428C63.6918 468.548 65.0701 469.452 66.2795 471.141C67.489 472.824 67.8267 474.464 67.2874 476.06C66.748 477.656 65.288 478.86 62.8964 479.677L61.4581 477.678C58.903 478.108 58.2384 479.176 59.4642 480.881V480.87Z" fill="#231F20"/>
<path d="M40.6525 463.138C41.8456 465.241 42.1615 467.039 41.595 468.537C41.0284 470.035 39.9551 471.233 38.3698 472.138C36.7844 473.037 35.1991 473.293 33.6192 472.906C32.0393 472.519 30.6827 471.337 29.5605 469.354C28.4382 467.371 28.0459 465.6 28.3946 464.042C28.7433 462.484 29.7784 461.215 31.4999 460.234C33.2269 459.254 34.8831 458.971 36.4739 459.374C38.0701 459.782 39.4594 461.035 40.6525 463.133V463.138ZM49.854 469.79L41.5841 455.223L68.8183 439.767L66.9278 436.439L67.9956 435.829L78.0198 453.49L76.952 454.095L75.0943 450.826L48.9279 465.677L50.9218 469.185L49.854 469.795V469.79Z" fill="#231F20"/>
<path d="M39.2033 449.061L38.0756 449.551L30.138 431.383L31.2657 430.893L32.7421 434.276L50.5622 418.363L26.5859 420.183L28.4219 424.383L27.2941 424.873L23.437 416.037L24.5647 415.547L25.9321 418.679L64.8195 415.645C69.3467 415.307 72.768 415.656 75.0834 416.68C77.3988 417.71 79.0931 419.453 80.1718 421.921C81.2504 424.388 81.5337 426.573 81.0271 428.485C80.5204 430.397 79.3872 431.737 77.633 432.505C75.8788 433.274 74.3425 433.399 73.0186 432.881C71.7002 432.364 70.7087 431.351 70.0549 429.847C68.5404 426.382 69.2269 424.018 72.1088 422.76C72.7353 422.487 73.5416 422.28 74.5277 422.149L75.4865 424.345C76.5925 424.258 77.4042 423.953 77.9218 423.43C78.4393 422.907 78.5047 422.204 78.1233 421.327C77.377 419.616 75.8624 418.461 73.5852 417.862C71.308 417.263 68.1754 417.116 64.1766 417.421L59.6875 417.737L62.0955 423.25L38.081 446.495L39.2033 449.067V449.061Z" fill="#231F20"/>
<path d="M5.00665 418.87L0 402.886L47.762 387.932L46.6179 384.277L47.7947 383.912L53.8637 403.289L52.6869 403.66L51.5647 400.07L4.97396 414.653L6.17795 418.505L5.0012 418.87H5.00665Z" fill="#231F20"/>
<path d="M42.3141 378.453C39.9061 381.923 36.049 384.173 30.7481 385.214C25.4473 386.254 21.0726 385.426 17.6186 382.735C14.1646 380.044 11.9473 376.192 10.9667 371.18C8.97819 361.026 13.1241 355.153 23.4043 353.557L27.1089 372.477L29.7239 371.965C34.1095 371.104 37.3074 369.9 39.3286 368.342C41.3498 366.784 42.0853 364.621 41.5405 361.849C40.5272 356.662 37.0841 353.802 31.2221 353.279L31.1894 352.032C34.578 352.25 37.3837 353.29 39.6065 355.159C41.8292 357.022 43.3764 360.171 44.2426 364.6C45.3704 370.369 44.733 374.988 42.325 378.459L42.3141 378.453ZM25.7524 372.679L24.4013 365.765L21.1107 366.408C17.4879 367.117 15.0581 367.814 13.8214 368.495C12.5847 369.176 12.0944 370.156 12.3396 371.431C12.5902 372.706 13.4782 373.507 15.0036 373.834C16.529 374.16 19.0187 373.986 22.4618 373.316L25.7524 372.673V372.679Z" fill="#231F20"/>
<path d="M22.8159 318.24L22.7832 316.257L17.5205 316.344C13.1894 316.415 10.2911 316.703 8.81475 317.204C7.34381 317.706 6.61379 318.643 6.63558 320.01C6.64648 320.833 6.87529 321.568 7.32202 322.222C7.76875 322.876 8.36257 323.197 9.11439 323.186C9.8662 323.175 10.6289 323.023 11.3971 322.739L11.3698 321.029C12.3232 320.647 13.4673 320.446 14.8129 320.424C16.1586 320.402 17.3299 320.953 18.3268 322.075C19.3238 323.197 19.8359 324.624 19.8686 326.357C19.934 330.279 18.0708 332.267 14.2899 332.327C8.684 332.42 5.80205 327.702 5.6495 318.174C5.56234 312.754 6.42311 308.989 8.23727 306.881C10.0514 304.778 13.4183 303.683 18.3377 303.607L32.2136 303.384C34.5835 303.345 35.7602 302.665 35.7384 301.341C35.7112 299.794 33.3522 298.916 28.6507 298.72L28.6997 297.696C32.7148 297.816 35.4824 298.519 37.0078 299.815C38.5332 301.112 39.3177 303.264 39.3667 306.271C39.4539 311.74 37.8195 314.911 34.4636 315.788C36.2069 316.355 37.4981 317.221 38.3371 318.392C39.1761 319.563 39.6174 321.29 39.65 323.567C39.759 330.312 37.0568 333.727 31.5435 333.82C28.3074 333.875 26.0629 332.622 24.8153 330.067C23.5677 327.512 22.8977 323.567 22.8105 318.234L22.8159 318.24ZM35.8419 320.386C36.5229 320.124 36.8552 319.64 36.8444 318.931C36.8335 318.223 36.2396 317.575 35.0683 316.976C33.897 316.376 32.2844 316.099 30.236 316.131L23.8783 316.235V316.714C23.9328 319.542 26.0302 320.92 30.1761 320.854L31.2711 320.838C33.641 320.8 35.1664 320.653 35.8474 320.386H35.8419Z" fill="#231F20"/>
<path d="M7.5127 297.282L6.29236 297.135L8.64587 277.447L9.8662 277.594L9.43037 281.26L32.8565 276.554L11.2554 265.985L10.7106 270.534L9.4903 270.387L10.6344 260.815L11.8547 260.962L11.4516 264.356L46.5308 281.424C50.6058 283.423 53.3843 285.455 54.8607 287.514C56.3371 289.574 56.9145 291.938 56.5931 294.607C56.2771 297.277 55.4109 299.309 54.0053 300.703C52.5998 302.098 50.9436 302.681 49.0477 302.452C47.1464 302.223 45.7572 301.553 44.8801 300.442C44.0029 299.331 43.6597 297.958 43.8558 296.323C44.3026 292.57 46.0895 290.876 49.2112 291.246C49.8921 291.328 50.6875 291.562 51.6082 291.943L51.325 294.319C52.3219 294.803 53.1772 294.951 53.8909 294.76C54.6046 294.569 55.0132 293.997 55.1276 293.049C55.351 291.192 54.6319 289.432 52.9702 287.765C51.3086 286.098 48.6773 284.382 45.0816 282.622L41.0502 280.628L40.3365 286.605L7.85592 294.498L7.52359 297.282H7.5127Z" fill="#231F20"/>
<path d="M11.4951 255.792L15.8589 239.901L21.9225 241.568C20.092 240.31 18.7627 238.785 17.9291 236.998C17.0956 235.211 17.0847 232.841 17.8965 229.899C19.7705 223.09 24.374 220.687 31.7124 222.703L51.5592 228.156L52.5725 224.462L53.7602 224.789L48.6337 243.448L47.446 243.121L48.1869 240.419L26.7602 234.53C24.1234 233.805 22.3747 233.511 21.5084 233.653C20.6422 233.794 20.0811 234.323 19.8305 235.249C19.4437 236.654 20.0266 238.153 21.5738 239.732C23.121 241.318 25.2185 242.473 27.8553 243.197L46.0514 248.198L46.8304 245.365L48.0181 245.692L42.8752 264.416L41.6876 264.089L42.6845 260.461L13.6743 252.491L12.6773 256.119L11.4897 255.792H11.4951Z" fill="#231F20"/>
<path d="M24.5593 211.775L30.9442 196.287L59.8946 208.217L61.3546 204.676L62.4932 205.145L54.7572 223.918L53.6185 223.449L55.0513 219.974L27.2342 208.512L25.6979 212.243L24.5593 211.775Z" fill="#231F20"/>
<path d="M63.7953 169.016L64.8413 167.332L60.3685 164.554C56.6912 162.271 54.0979 160.942 52.5834 160.566C51.0743 160.19 49.9575 160.582 49.2329 161.748C48.8026 162.446 48.5955 163.192 48.6119 163.976C48.6337 164.766 48.9606 165.36 49.598 165.758C50.2354 166.156 50.9599 166.439 51.7608 166.619L52.6651 165.164C53.6676 165.36 54.7463 165.812 55.8849 166.521C57.0289 167.229 57.7154 168.329 57.9442 169.811C58.1785 171.298 57.8352 172.774 56.92 174.245C54.8498 177.574 52.213 178.244 48.9987 176.245C44.2372 173.287 44.3679 167.763 49.3964 159.667C52.2565 155.059 55.0187 152.362 57.6827 151.572C60.3467 150.782 63.768 151.686 67.9466 154.285L79.7359 161.607C81.7516 162.86 83.1027 162.92 83.8001 161.797C84.6173 160.479 83.1027 158.469 79.2619 155.761L79.8612 154.928C83.1736 157.199 85.1185 159.291 85.7014 161.209C86.2789 163.127 85.7777 165.36 84.1923 167.915C81.3049 172.562 78.2159 174.343 74.9145 173.259C76.0749 174.676 76.6905 176.103 76.7613 177.547C76.8322 178.985 76.2656 180.674 75.067 182.608C71.5095 188.339 67.3855 189.75 62.7002 186.84C59.949 185.135 58.745 182.869 59.0774 180.042C59.4097 177.22 60.9841 173.537 63.7953 169.01V169.016ZM73.5852 177.874C74.2989 178.021 74.8382 177.797 75.2141 177.193C75.5846 176.593 75.4429 175.727 74.7783 174.589C74.1136 173.455 72.9151 172.344 71.1718 171.26L65.7674 167.904L65.5168 168.313C64.0241 170.715 65.0428 173.009 68.5677 175.199L69.4993 175.776C71.515 177.029 72.877 177.726 73.5907 177.874H73.5852Z" fill="#231F20"/>
<path d="M103.609 141.815L99.4683 139.298C101.25 142.839 100.607 146.418 97.5452 150.036C95.0119 153.027 91.9665 154.437 88.4145 154.263C84.857 154.089 80.9399 152.193 76.6633 148.57C68.0011 141.238 66.5846 134.123 72.4193 127.237C75.0126 124.175 77.5731 122.879 80.1009 123.347L64.7051 110.316L62.0083 113.498L61.0713 112.702L72.1143 99.6552L110.31 131.993L112.473 129.438L113.41 130.233L103.603 141.815H103.609ZM94.5216 145.411C96.047 146.043 97.2401 145.846 98.1118 144.822C98.978 143.798 99.2776 142.529 99.0107 141.014C98.7383 139.5 97.7141 137.991 95.9435 136.493L84.5682 126.861C83.0755 125.597 81.5501 124.818 80.0083 124.524C78.4611 124.23 77.2081 124.66 76.2329 125.81C75.2632 126.959 75.3612 128.386 76.5434 130.102C77.7202 131.819 80.2208 134.292 84.0507 137.533L86.7637 139.832C90.4193 142.926 93.0071 144.79 94.527 145.421L94.5216 145.411Z" fill="#231F20"/>
<path d="M116.422 106.1L117.91 104.787L114.428 100.837C111.568 97.585 109.471 95.5639 108.131 94.7686C106.79 93.9732 105.608 94.0277 104.584 94.932C103.968 95.4713 103.554 96.1251 103.347 96.8877C103.14 97.6504 103.282 98.315 103.778 98.8761C104.273 99.4373 104.884 99.9221 105.597 100.325L106.883 99.1976C107.787 99.677 108.686 100.418 109.574 101.426C110.462 102.434 110.8 103.686 110.593 105.174C110.386 106.661 109.629 107.979 108.332 109.123C105.39 111.716 102.666 111.591 100.171 108.747C96.4665 104.536 98.1881 99.2902 105.341 92.9926C109.411 89.408 112.838 87.6266 115.616 87.6375C118.394 87.6538 121.407 89.5061 124.66 93.2051L133.828 103.621C135.397 105.403 136.672 105.855 137.664 104.978C138.824 103.953 137.963 101.589 135.065 97.8847L135.882 97.2582C138.394 100.391 139.652 102.956 139.652 104.961C139.652 106.966 138.525 108.96 136.269 110.948C132.161 114.56 128.686 115.372 125.842 113.383C126.545 115.078 126.719 116.619 126.37 118.019C126.022 119.42 124.992 120.869 123.281 122.378C118.215 126.834 113.862 126.992 110.217 122.852C108.081 120.422 107.575 117.905 108.713 115.296C109.847 112.686 112.418 109.619 116.422 106.1ZM123.232 117.409C123.87 117.758 124.458 117.698 124.986 117.23C125.515 116.761 125.629 115.889 125.324 114.609C125.019 113.329 124.186 111.918 122.834 110.382L118.634 105.61L118.275 105.925C116.155 107.794 116.46 110.284 119.206 113.394L119.931 114.217C121.5 115.998 122.6 117.061 123.238 117.409H123.232Z" fill="#231F20"/>
<path d="M162.403 91.5653L159.167 87.9589C159.848 91.8649 158.202 95.1009 154.225 97.6777C150.935 99.8077 147.612 100.282 144.261 99.0832C140.905 97.8901 137.707 94.9374 134.656 90.2361C128.484 80.7134 129.187 73.4952 136.759 68.5868C140.126 66.4077 142.954 65.9065 145.236 67.0832L134.264 50.1572L130.767 52.4234L130.097 51.3884L144.441 42.0945L171.659 84.091L174.47 82.2715L175.14 83.3066L162.403 91.5599V91.5653ZM152.662 92.377C153.937 93.423 155.141 93.581 156.268 92.851C157.396 92.121 158.05 90.9933 158.23 89.4625C158.409 87.9371 157.865 86.1939 156.601 84.2436L148.494 71.7356C147.426 70.0904 146.201 68.9082 144.806 68.1782C143.411 67.4537 142.082 67.4973 140.824 68.3144C139.56 69.1316 139.249 70.5316 139.876 72.5146C140.508 74.4976 142.186 77.5919 144.915 81.7975L146.849 84.7829C149.453 88.7979 151.393 91.3311 152.667 92.377H152.662Z" fill="#231F20"/>
<path d="M184.984 61.0962L186.788 60.2736L184.603 55.485C182.811 51.5463 181.383 49.0023 180.337 47.8473C179.286 46.6979 178.142 46.4037 176.894 46.9757C176.148 47.3135 175.565 47.8201 175.14 48.4902C174.721 49.1602 174.661 49.8358 174.977 50.5167C175.287 51.2031 175.728 51.8405 176.3 52.4289L177.859 51.7207C178.589 52.4398 179.231 53.4149 179.787 54.6352C180.343 55.8609 180.31 57.152 179.678 58.5194C179.046 59.8868 177.946 60.9273 176.366 61.641C172.797 63.2644 170.231 62.3601 168.662 58.9171C166.336 53.8126 169.512 49.291 178.18 45.3414C183.116 43.0915 186.908 42.3778 189.566 43.2004C192.219 44.023 194.567 46.6706 196.605 51.1487L202.358 63.7765C203.339 65.9338 204.434 66.74 205.638 66.1898C207.049 65.547 206.907 63.0356 205.207 58.6447L206.171 58.2797C207.67 62.006 208.127 64.8279 207.55 66.7455C206.972 68.6631 205.311 70.2429 202.576 71.4904C197.596 73.7567 194.039 73.5279 191.892 70.7986C192.072 72.6236 191.789 74.1489 191.053 75.3856C190.313 76.6222 188.907 77.7172 186.837 78.6597C180.697 81.4543 176.486 80.343 174.198 75.3256C172.857 72.3784 173.108 69.8234 174.949 67.6553C176.791 65.4871 180.141 63.2971 184.995 61.0907L184.984 61.0962ZM188.226 73.8929C188.738 74.4104 189.316 74.5248 189.958 74.2307C190.601 73.9365 190.961 73.1357 191.037 71.8228C191.113 70.5099 190.727 68.9191 189.877 67.056L187.24 61.2705L186.804 61.4666C184.233 62.6379 183.808 65.1112 185.524 68.8864L185.976 69.8834C186.957 72.0407 187.703 73.3754 188.215 73.8983L188.226 73.8929Z" fill="#231F20"/>
<path d="M202.08 35.5518L217.934 31.0684L219.644 37.1208C219.775 34.9035 220.391 32.9805 221.491 31.3407C222.592 29.7064 224.613 28.4698 227.549 27.6363C234.348 25.7132 238.783 28.4153 240.853 35.7371L246.453 55.5395L250.136 54.499L250.474 55.6812L231.853 60.9491L231.521 59.767L234.217 59.0043L228.17 37.622C227.424 34.9907 226.77 33.3401 226.204 32.67C225.637 31.9999 224.891 31.7984 223.97 32.0598C222.564 32.4575 221.589 33.7268 221.033 35.8732C220.478 38.0196 220.576 40.4058 221.322 43.0424L226.46 61.1997L229.287 60.3989L229.625 61.581L210.938 66.8653L210.601 65.6832L214.218 64.659L206.03 35.7098L202.412 36.734L202.075 35.5518H202.08Z" fill="#231F20"/>
<path d="M269.182 49.4653C266.055 46.7741 264.29 42.7101 263.887 37.2788C263.484 31.8474 264.726 27.5491 267.624 24.384C270.517 21.2189 274.783 19.4266 280.421 19.0071C286.054 18.5876 290.364 19.6281 293.338 22.1232C296.313 24.6237 298.007 28.6441 298.421 34.1899C299.288 45.7826 293.943 52.0094 282.399 52.8701C276.717 53.2951 272.315 52.1619 269.188 49.4653H269.182ZM285.57 38.4391L285.139 32.6427C284.812 28.2355 284.333 25.0377 283.706 23.0493C283.08 21.0609 281.898 20.1348 280.171 20.2601C279.168 20.3363 278.384 20.6796 277.812 21.2951C277.24 21.9107 276.869 22.8859 276.695 24.226C276.439 26.3016 276.466 29.4286 276.777 33.6124L277.174 38.9294C277.545 43.8868 277.915 46.8504 278.286 47.8255C278.656 48.8061 279.021 49.6015 279.392 50.2116C279.975 51.2631 280.988 51.737 282.448 51.6281C284.219 51.4973 285.303 50.386 285.695 48.2995C285.995 46.8123 285.956 43.5273 285.575 38.4337L285.57 38.4391Z" fill="#231F20"/>
<path d="M303.559 0L320.3 0.615593L318.47 50.6311L322.294 50.7728L322.251 52.0039L301.957 51.2631L302.001 50.0319L305.76 50.1681L307.547 1.38372L303.515 1.23663L303.559 0.00544772V0Z" fill="#231F20"/>
<path d="M329.823 18.6748L345.998 21.8127L344.8 27.9849C347.164 23.7085 350.858 22.0578 355.897 23.033C360.936 24.0081 363.519 27.0207 363.649 32.0598C366.155 27.5328 369.909 25.7514 374.921 26.7265C381.497 28.0013 384.063 32.3813 382.614 39.8501L378.691 60.0502L382.45 60.7802L382.216 61.9896L363.622 58.3778L363.856 57.1684L366.204 57.626L370.438 35.8133C371.097 32.4139 371.195 30.3656 370.726 29.6683C370.508 29.3469 370.176 29.1453 369.729 29.0581C368.433 28.8076 367.12 29.4558 365.796 31.0084C364.472 32.561 363.551 34.6802 363.028 37.3659L359.351 56.2913L361.77 56.7598L361.536 57.9692L344.287 54.6189L344.522 53.4095L346.87 53.8671L351.103 32.0544C351.762 28.655 351.86 26.6067 351.392 25.9094C351.174 25.5879 350.841 25.3864 350.395 25.2992C349.142 25.0541 347.829 25.7895 346.45 27.4947C345.072 29.1998 344.129 31.3734 343.617 34.0156L340.022 52.5378L342.441 53.0063L342.206 54.2157L323.613 50.6039L323.847 49.3945L327.54 50.1136L333.272 20.5815L329.578 19.8624L329.812 18.653L329.823 18.6748Z" fill="#231F20"/>
<path d="M403.697 54.3574L405.539 55.0874L407.478 50.1953C409.074 46.1694 409.924 43.3802 410.022 41.8276C410.126 40.275 409.537 39.2454 408.268 38.7387C407.505 38.4337 406.737 38.3629 405.963 38.5208C405.19 38.6788 404.661 39.1092 404.389 39.8065C404.117 40.5038 403.959 41.2665 403.926 42.0891L405.517 42.721C405.5 43.7452 405.25 44.8838 404.754 46.1313C404.258 47.3788 403.299 48.2505 401.877 48.7408C400.456 49.2311 398.941 49.1602 397.334 48.5174C393.689 47.0738 392.567 44.5896 393.962 41.0758C396.026 35.8624 401.491 35.0125 410.344 38.5263C415.383 40.5256 418.532 42.7646 419.779 45.2488C421.027 47.7275 420.744 51.2576 418.93 55.8337L413.814 68.7339C412.942 70.9348 413.117 72.2804 414.348 72.7707C415.786 73.3427 417.502 71.4959 419.485 67.2303L420.411 67.6716C418.761 71.3325 417.045 73.6205 415.263 74.5303C413.482 75.44 411.188 75.342 408.393 74.2307C403.31 72.215 401.006 69.4857 401.491 66.0482C400.303 67.4428 399.006 68.2981 397.601 68.6249C396.195 68.9518 394.436 68.6903 392.316 67.8514C386.046 65.3618 383.927 61.5592 385.959 56.4329C387.152 53.4258 389.167 51.8351 392.006 51.6607C394.844 51.4864 398.745 52.3853 403.703 54.3519L403.697 54.3574ZM396.713 65.5633C396.691 66.2933 397.013 66.7836 397.672 67.0451C398.331 67.3066 399.159 67.007 400.156 66.1571C401.158 65.3018 402.035 63.9236 402.793 62.0169L405.135 56.1061L404.689 55.9318C402.063 54.8912 399.982 56.2968 398.456 60.1537L398.053 61.1725C397.181 63.3733 396.735 64.8388 396.713 65.5688V65.5633Z" fill="#231F20"/>
<path d="M436.701 88.2858L437.322 87.2235L440.035 88.8142L441.38 71.2235L440.084 70.864L432.244 84.2599L434.957 85.8506L434.336 86.9129L417.399 77.0035L418.02 75.9412L421.267 77.8425L445.924 35.7098L442.443 33.6724L443.064 32.6101L457.523 41.0704L440.77 69.6873L441.92 69.8834L461.658 66.6202L456.112 63.3733L456.733 62.311L468.359 69.1152L467.738 70.1776L463.608 67.7588L453.099 69.611L451.601 95.5912L453.725 96.8333L453.104 97.8956L436.701 88.2967V88.2858Z" fill="#231F20"/>
<path d="M462.475 93.3631L475.702 76.3662L472.733 74.0563L473.491 73.0866L476.46 75.3965L481.875 68.4343L493.844 73.7621L486.495 83.203L493.512 88.6617L492.754 89.6314L485.737 84.1727L471.589 102.357C470.271 104.046 469.475 105.424 469.203 106.481C468.931 107.538 469.334 108.486 470.412 109.325C471.491 110.164 472.859 110.36 474.504 109.908C476.155 109.456 477.833 108.399 479.538 106.721L480.371 107.543C478.149 109.799 475.828 111.155 473.398 111.607C470.968 112.06 468.261 111.117 465.275 108.796C462.29 106.47 460.465 104.101 459.805 101.682C459.146 99.2629 460.034 96.49 462.469 93.3576L462.475 93.3631Z" fill="#231F20"/>
<path d="M498.349 115.715L499.755 117.115L503.471 113.383C506.527 110.316 508.406 108.088 509.115 106.705C509.823 105.321 509.692 104.139 508.722 103.174C508.139 102.597 507.464 102.226 506.69 102.069C505.917 101.911 505.263 102.096 504.734 102.63C504.206 103.163 503.759 103.801 503.411 104.542L504.62 105.746C504.201 106.683 503.52 107.625 502.572 108.579C501.624 109.532 500.398 109.951 498.9 109.842C497.402 109.733 496.04 109.063 494.814 107.843C492.035 105.076 491.981 102.352 494.656 99.6715C498.611 95.7001 503.966 97.0784 510.716 103.801C514.557 107.631 516.562 110.932 516.725 113.699C516.889 116.472 515.238 119.599 511.762 123.086L501.961 132.919C500.289 134.597 499.918 135.904 500.855 136.836C501.951 137.931 504.255 136.912 507.763 133.78L508.444 134.553C505.481 137.266 503.002 138.688 501.008 138.819C499.009 138.95 496.944 137.958 494.814 135.833C490.94 131.971 489.9 128.555 491.703 125.592C490.058 126.398 488.527 126.676 487.11 126.42C485.694 126.164 484.174 125.232 482.561 123.625C477.784 118.864 477.342 114.527 481.232 110.621C483.515 108.328 485.999 107.663 488.674 108.628C491.349 109.592 494.579 111.951 498.355 115.72L498.349 115.715ZM487.508 123.249C487.203 123.908 487.301 124.491 487.802 124.987C488.303 125.488 489.181 125.543 490.439 125.151C491.698 124.764 493.049 123.843 494.498 122.389L498.987 117.883L498.649 117.545C496.65 115.552 494.182 116.02 491.256 118.962L490.483 119.735C488.81 121.413 487.819 122.585 487.514 123.244L487.508 123.249Z" fill="#231F20"/>
<path d="M528.248 122.694L538.049 135.937L532.993 139.68C535.112 139.02 537.133 138.911 539.051 139.364C540.969 139.816 542.843 141.265 544.657 143.722C548.857 149.398 547.904 154.503 541.78 159.03L525.235 171.271L527.512 174.349L526.521 175.079L515.009 159.526L516.001 158.796L517.668 161.051L535.532 147.835C537.733 146.206 539.04 145.013 539.465 144.245C539.89 143.477 539.819 142.709 539.247 141.94C538.381 140.769 536.845 140.301 534.638 140.546C532.437 140.785 530.236 141.722 528.035 143.346L512.868 154.574L514.617 156.938L513.625 157.668L502.076 142.06L503.067 141.33L505.306 144.354L529.49 126.458L527.251 123.434L528.242 122.704L528.248 122.694Z" fill="#231F20"/>
<path d="M533.5 189.412L544.521 184.089L544.88 184.83C541.824 187.62 540.015 190.267 539.449 192.768C538.882 195.268 539.258 197.872 540.565 200.58C542.587 204.769 544.929 206.218 547.599 204.927C548.748 204.371 549.364 203.44 549.44 202.138C549.571 200.1 549.277 197.709 548.558 194.969C547.947 191.82 547.806 189.003 548.122 186.525C548.509 183.556 550.306 181.295 553.504 179.748C556.702 178.2 559.737 177.955 562.597 179.001C565.457 180.047 567.68 182.215 569.265 185.5C570.235 187.511 570.763 189.81 570.851 192.403C570.9 193.34 571.019 194.015 571.221 194.424C571.417 194.832 571.733 195.116 572.158 195.263C572.583 195.41 573.286 195.502 574.266 195.535L574.593 196.211L565.174 200.759L564.82 200.019C569.145 195.35 570.246 190.817 568.127 186.426C567.195 184.498 566.16 183.223 565.032 182.608C563.899 181.992 562.82 181.932 561.791 182.428C561.175 182.727 560.761 183.103 560.554 183.556C560.341 184.013 560.194 184.362 560.113 184.601C560.026 184.847 559.982 185.195 559.976 185.653C559.971 186.111 559.976 186.486 559.993 186.786C560.009 187.08 560.058 187.527 560.145 188.121C560.227 188.715 560.309 189.145 560.385 189.406C561.033 192.533 561.398 194.838 561.48 196.32C561.562 197.801 561.502 199.272 561.295 200.738C560.826 203.75 558.854 206.093 555.389 207.765C551.919 209.438 548.797 209.683 546.019 208.49C543.24 207.297 540.99 204.921 539.269 201.348C538.038 198.804 537.444 196.053 537.487 193.1C537.58 192.446 537.553 191.978 537.417 191.694C536.981 190.79 535.793 190.278 533.859 190.147L533.5 189.406V189.412Z" fill="#EC008C"/>
<path d="M576.767 203.57L582.509 219.303L553.09 230.041L554.403 233.636L553.248 234.061L546.286 214.983L547.441 214.564L548.732 218.094L576.99 207.782L575.607 203.99L576.762 203.57H576.767Z" fill="#EC008C"/>
<path d="M559.339 257.203L560.538 256.925L561.246 259.992L574.964 248.901L574.337 247.713L559.214 251.2L559.922 254.262L558.723 254.539L554.316 235.418L555.515 235.14L556.359 238.806L603.93 227.835L603.021 223.907L604.219 223.629L607.984 239.95L575.672 247.403L576.315 248.378L592.234 260.494L590.79 254.229L591.989 253.951L595.018 267.075L593.819 267.352L592.746 262.689L584.187 256.315L564.259 273.051L564.814 275.448L563.616 275.726L559.344 257.203H559.339Z" fill="#EC008C"/>
<path d="M595.513 273.448L597.251 290.108L566.105 293.354L566.503 297.162L565.277 297.288L563.169 277.093L564.395 276.968L564.787 280.71L594.707 277.589L594.288 273.574L595.513 273.448Z" fill="#EC008C"/>
<path d="M616.668 298.072L617 314.818L566.961 315.815L567.037 319.645L565.806 319.667L565.403 299.363L566.634 299.336L566.71 303.095L615.518 302.12L615.436 298.088L616.668 298.061V298.072Z" fill="#EC008C"/>
<path d="M599.501 325.283L597.3 341.616L591.068 340.777C595.475 342.89 597.333 346.486 596.652 351.569C595.965 356.651 593.111 359.403 588.088 359.833C592.751 362.072 594.745 365.722 594.064 370.777C593.171 377.418 588.948 380.229 581.403 379.216L561.006 376.47L560.494 380.262L559.274 380.098L561.802 361.331L563.022 361.494L562.7 363.864L584.721 366.833C588.153 367.296 590.202 367.275 590.872 366.768C591.177 366.534 591.362 366.19 591.422 365.738C591.596 364.425 590.872 363.156 589.243 361.925C587.614 360.694 585.446 359.893 582.738 359.528L563.627 356.951L563.3 359.392L562.079 359.228L564.427 341.812L565.648 341.975L565.326 344.345L587.347 347.314C590.779 347.777 592.827 347.755 593.498 347.243C593.803 347.009 593.988 346.666 594.048 346.214C594.217 344.95 593.41 343.68 591.629 342.406C589.847 341.131 587.619 340.314 584.955 339.954L566.253 337.432L565.926 339.872L564.705 339.709L567.233 320.942L568.453 321.105L567.952 324.831L597.769 328.846L598.27 325.12L599.49 325.283H599.501Z" fill="#EC008C"/>
<path d="M568.165 401.089L567.544 402.973L572.539 404.63C576.653 405.991 579.486 406.672 581.044 406.683C582.602 406.694 583.593 406.051 584.024 404.755C584.28 403.976 584.307 403.202 584.105 402.44C583.904 401.677 583.441 401.176 582.727 400.941C582.013 400.707 581.245 400.593 580.423 400.609L579.883 402.233C578.859 402.276 577.709 402.091 576.435 401.666C575.16 401.241 574.234 400.337 573.662 398.948C573.09 397.558 573.073 396.038 573.618 394.399C574.849 390.678 577.263 389.409 580.853 390.596C586.176 392.356 587.341 397.76 584.35 406.803C582.645 411.951 580.591 415.22 578.189 416.609C575.786 417.998 572.245 417.922 567.571 416.375L554.392 412.017C552.142 411.27 550.808 411.526 550.394 412.785C549.909 414.256 551.848 415.857 556.223 417.595L555.836 418.548C552.082 417.116 549.702 415.536 548.688 413.809C547.675 412.082 547.642 409.789 548.585 406.934C550.301 401.742 552.894 399.285 556.354 399.563C554.894 398.457 553.962 397.21 553.559 395.831C553.15 394.448 553.308 392.677 554.022 390.514C556.141 384.108 559.818 381.776 565.054 383.503C568.127 384.522 569.832 386.44 570.169 389.267C570.507 392.089 569.837 396.033 568.165 401.099V401.089ZM556.571 394.769C555.841 394.791 555.368 395.14 555.144 395.81C554.921 396.48 555.264 397.291 556.179 398.239C557.089 399.187 558.516 399.988 560.467 400.631L566.503 402.63L566.656 402.178C567.544 399.492 566.018 397.504 562.079 396.202L561.039 395.859C558.789 395.112 557.302 394.753 556.571 394.775V394.769Z" fill="#EC008C"/>
<path d="M535.793 436.836L540.402 438.324C537.847 435.295 537.634 431.667 539.776 427.434C541.541 423.936 544.177 421.855 547.675 421.196C551.173 420.537 555.427 421.474 560.429 424.002C570.562 429.117 573.591 435.703 569.521 443.76C567.713 447.34 565.522 449.197 562.956 449.328L580.962 458.42L582.841 454.699L583.942 455.255L576.239 470.514L531.565 447.95L530.056 450.941L528.956 450.385L535.799 436.836H535.793ZM543.796 431.231C542.167 430.969 541.05 431.438 540.44 432.636C539.835 433.835 539.841 435.142 540.456 436.548C541.072 437.953 542.418 439.184 544.493 440.23L557.797 446.947C559.546 447.83 561.208 448.233 562.777 448.162C564.346 448.086 565.473 447.378 566.149 446.038C566.824 444.698 566.394 443.33 564.852 441.935C563.311 440.541 560.298 438.716 555.825 436.455L552.649 434.853C548.378 432.696 545.425 431.487 543.796 431.225V431.231Z" fill="#EC008C"/>
<path d="M554.725 469.681L545.458 483.638L519.373 466.314L517.254 469.506L516.23 468.825L527.463 451.91L528.487 452.591L526.406 455.724L551.467 472.366L553.7 469.005L554.725 469.686V469.681Z" fill="#EC008C"/>
<path d="M540.38 491.749L529.67 504.268L524.892 500.177C526.009 502.095 526.564 504.04 526.559 506.012C526.548 507.984 525.556 510.13 523.568 512.451C518.975 517.817 513.783 518.029 508.003 513.083L492.362 499.703L489.872 502.612L488.935 501.811L501.515 487.108L502.452 487.909L500.632 490.039L517.515 504.486C519.596 506.262 521.056 507.275 521.895 507.515C522.74 507.755 523.47 507.515 524.096 506.785C525.044 505.674 525.153 504.078 524.423 501.98C523.693 499.888 522.293 497.954 520.212 496.173L505.873 483.905L503.961 486.138L503.024 485.338L515.647 470.585L516.584 471.386L514.138 474.246L536.997 493.803L539.443 490.943L540.38 491.744V491.749Z" fill="#EC008C"/>
<path d="M509.85 526.016L497.5 537.336L476.34 514.249L473.518 516.836L472.684 515.926L487.655 502.204L488.489 503.113L485.716 505.652L506.042 527.83L509.017 525.106L509.85 526.016Z" fill="#EC008C"/>
<path d="M465.161 562.379L464.431 561.388L459.718 527.546L458.999 528.069C455.91 530.33 454.074 532.918 453.497 535.832C452.919 538.742 453.464 542.381 455.142 546.75L454.368 547.316L446.965 535.364L470.129 518.389L470.734 519.217L475.343 553.385L475.948 552.938C479.663 550.214 481.799 547.719 482.365 545.442C482.932 543.165 482.327 539.624 480.557 534.819L481.276 534.296L488.32 545.41L465.155 562.385L465.161 562.379Z" fill="#EC008C"/>
<path d="M444.867 575.911L429.695 582.334L427.243 576.543C427.668 581.408 425.522 584.846 420.798 586.845C416.075 588.844 412.25 587.787 409.325 583.685C409.777 588.839 407.647 592.412 402.945 594.401C396.773 597.01 392.207 594.815 389.238 587.804L381.214 568.851L377.689 570.344L377.209 569.211L394.648 561.829L395.128 562.962L392.927 563.894L401.589 584.355C402.94 587.542 404.002 589.296 404.781 589.612C405.141 589.759 405.528 589.743 405.947 589.563C407.167 589.046 407.887 587.776 408.121 585.75C408.35 583.723 407.936 581.452 406.868 578.929L399.35 561.175L397.083 562.134L396.604 561.001L412.784 554.153L413.264 555.286L411.063 556.218L419.725 576.679C421.076 579.872 422.138 581.62 422.917 581.936C423.277 582.084 423.664 582.067 424.083 581.887C425.26 581.392 425.941 580.046 426.132 577.867C426.322 575.683 425.892 573.351 424.841 570.878L417.486 553.499L415.219 554.458L414.74 553.325L432.179 545.943L432.658 547.077L429.193 548.542L440.923 576.244L444.388 574.778L444.867 575.911Z" fill="#EC008C"/>
<path d="M383.965 599.538L367.708 603.58L360.157 573.193L356.442 574.119L356.148 572.926L375.853 568.028L376.147 569.221L372.497 570.126L379.753 599.32L383.671 598.345L383.965 599.538Z" fill="#EC008C"/>
<path d="M353.059 619.907C350.64 622.233 346.957 623.71 342.005 624.336C337.053 624.963 333.114 624.494 330.183 622.936C327.252 621.378 325.552 618.741 325.083 615.037C324.773 612.596 325.1 610.357 326.064 608.331C327.023 606.304 328.445 604.18 330.324 601.968L339.417 591.584L338.921 587.651L340.616 587.439L342.413 601.684C342.511 602.453 342.343 603.117 341.907 603.678L338.24 608.483C337.096 609.96 336.344 611.305 335.996 612.525C335.647 613.74 335.587 615.277 335.821 617.129C336.377 621.514 338.687 623.454 342.757 622.936C344.702 622.691 346.058 621.988 346.832 620.833C347.605 619.678 347.932 618.627 347.812 617.679C347.692 616.731 347.453 615.908 347.088 615.222L344.919 615.494C344.44 614.59 344.113 613.473 343.944 612.139C343.775 610.804 344.195 609.578 345.203 608.467C346.211 607.35 347.643 606.675 349.496 606.446C351.353 606.212 352.862 606.631 354.028 607.699C355.2 608.767 355.897 610.21 356.126 612.019C356.496 614.955 355.477 617.592 353.059 619.918V619.907ZM338.338 575.11C340.033 574.898 341.362 575.225 342.321 576.091C343.28 576.957 343.852 578.123 344.037 579.594C344.222 581.065 343.922 582.34 343.143 583.429C342.364 584.513 341.182 585.162 339.597 585.358C338.011 585.559 336.693 585.298 335.642 584.584C334.585 583.865 333.958 582.694 333.751 581.065C333.544 579.436 333.833 578.09 334.617 577.028C335.402 575.966 336.644 575.323 338.338 575.11Z" fill="#EC008C"/>
</svg>
