<svg width="23" height="23" viewBox="0 0 23 23" fill="none" xmlns="http://www.w3.org/2000/svg">
<path d="M6.27476 10H8.28475V12H6.27476V10Z" fill="white"/>
<path d="M10.2748 10H12.2848V12H10.2748V10Z" fill="white"/>
<path d="M14.2748 10H16.2848V12H14.2748V10Z" fill="white"/>
<path fill-rule="evenodd" clip-rule="evenodd" d="M0.274755 11C0.274755 4.92487 5.19962 0 11.2748 0C17.3499 0 22.2748 4.92487 22.2748 11C22.2748 17.0751 17.3499 22 11.2748 22C9.60203 22 8.01415 21.626 6.59239 20.9563L0 22.2748L1.31848 15.6824C0.648783 14.2606 0.274755 12.6727 0.274755 11ZM11.2748 2C6.30419 2 2.27476 6.02944 2.27476 11C2.27476 12.4751 2.62888 13.8647 3.25588 15.091L3.41437 15.4009L2.54951 19.7252L6.87383 18.8604L7.1838 19.0189C8.41008 19.6459 9.79961 20 11.2748 20C16.2453 20 20.2748 15.9706 20.2748 11C20.2748 6.02944 16.2453 2 11.2748 2Z" fill="white"/>
</svg>
