<svg width="13" height="13" viewBox="0 0 13 13" fill="none" xmlns="http://www.w3.org/2000/svg">
<path d="M10.799 12.819H2.75151C1.63946 12.819 0.730957 11.9105 0.730957 10.7985V2.75102C0.730957 1.63897 1.63946 0.730469 2.75151 0.730469H10.799C11.911 0.730469 12.8195 1.63897 12.8195 2.75102V10.7985C12.8195 11.9155 11.916 12.819 10.799 12.819Z" fill="white"/>
<path d="M6.77664 9.87995C5.94757 9.87995 5.16814 9.55725 4.58233 8.97144C3.99652 8.38563 3.67383 7.6062 3.67383 6.77713C3.67383 5.94806 3.99652 5.16863 4.58233 4.58282C5.16814 3.99701 5.94757 3.67432 6.77664 3.67432C7.60572 3.67432 8.38514 3.99701 8.97096 4.58282C9.55677 5.16863 9.87946 5.94806 9.87946 6.77713C9.87946 7.6062 9.55677 8.38563 8.97096 8.97144C8.38018 9.55725 7.60572 9.87995 6.77664 9.87995ZM6.77664 4.3346C5.43126 4.3346 4.33411 5.42679 4.33411 6.77713C4.33411 8.12251 5.4263 9.21967 6.77664 9.21967C8.12202 9.21967 9.21918 8.12748 9.21918 6.77713C9.21422 5.43175 8.12202 4.3346 6.77664 4.3346Z" fill="#282B37"/>
<path d="M10.4854 3.57237C10.8144 3.57237 11.0812 3.30564 11.0812 2.97662C11.0812 2.64759 10.8144 2.38086 10.4854 2.38086C10.1564 2.38086 9.88965 2.64759 9.88965 2.97662C9.88965 3.30564 10.1564 3.57237 10.4854 3.57237Z" fill="white"/>
</svg>
