<svg width="242" height="121" viewBox="0 0 242 121" fill="none" xmlns="http://www.w3.org/2000/svg">
<g clip-path="url(#clip0_69_7341)">
<path d="M238.5 31.65L183.65 0H57.4596L2.60962 31.65C-0.00037837 33.16 -0.730378 35.9 0.769622 38.5L23.8396 78.47C25.3396 81.08 28.0796 81.81 30.6896 80.31L87.5296 47.51C88.5196 46.95 89.7696 46.9 90.8196 47.51C91.8696 48.12 92.4596 49.22 92.4596 50.36V115.98C92.4596 118.99 94.4696 121 97.4796 121H143.63C146.64 121 148.65 118.99 148.65 115.98V50.3C148.67 49.19 149.25 48.11 150.29 47.51C151.34 46.9 152.6 46.94 153.58 47.51L210.42 80.31C213.03 81.81 215.77 81.08 217.27 78.47L240.34 38.5C241.84 35.89 241.11 33.15 238.5 31.65Z" fill="black"/>
</g>
<defs>
<clipPath id="clip0_69_7341">
<rect width="241.11" height="121" fill="white"/>
</clipPath>
</defs>
</svg>
