<svg width="148" height="150" viewBox="0 0 148 150" fill="none" xmlns="http://www.w3.org/2000/svg">
<g clip-path="url(#clip0_69_7282)">
<path d="M57.9294 142.588C58.2351 140.366 59.0742 138.905 60.4442 138.204C61.71 137.553 63.3505 137.367 65.3671 137.646L69.9452 138.275L69.9022 138.582L68.8341 138.435L67.3601 149.144L68.4282 149.291L68.3853 149.598L63.387 148.909C61.3171 148.625 59.8223 147.987 58.9038 146.998C57.9853 146.01 57.6601 144.538 57.9294 142.587V142.588ZM65.6806 138.001L65.0665 137.916C63.9776 137.767 63.145 138.045 62.57 138.752C61.9949 139.458 61.5825 140.717 61.3327 142.528L61.2039 143.466C60.8696 145.893 61.1324 147.417 61.991 148.042C62.4008 148.34 63.0097 148.545 63.8189 148.656L64.2066 148.709L65.6806 138.001Z" fill="#EC008C"/>
<path d="M53.2779 144.273C53.8334 144.43 54.1886 144.683 54.3447 145.032C54.5008 145.382 54.519 145.766 54.4006 146.185C54.2823 146.604 54.0559 146.914 53.7228 147.113C53.3898 147.313 52.9605 147.338 52.4362 147.19C51.9132 147.041 51.5489 146.806 51.346 146.483C51.143 146.16 51.1066 145.77 51.2354 145.315C51.3642 144.859 51.5984 144.532 51.9366 144.334C52.2762 144.136 52.7224 144.115 53.2779 144.273ZM55.9579 143.86L52.1083 142.771L54.1444 135.576L53.2649 135.327L53.3456 135.045L58.0122 136.365L57.9328 136.648L57.0689 136.403L55.1136 143.317L56.0412 143.579L55.9605 143.862L55.9579 143.86Z" fill="#EC008C"/>
<path d="M43.6709 140.54L43.1427 140.625C42.9553 140.912 43.0126 141.118 43.3157 141.241C43.7489 141.417 44.1015 141.172 44.3721 140.508C44.4788 140.245 44.566 139.929 44.6349 139.557C44.0781 138.73 43.961 137.917 44.2875 137.116C44.6141 136.315 45.1436 135.805 45.8786 135.586C46.6137 135.367 47.4554 135.451 48.4025 135.836C48.7954 135.996 49.1883 136.201 49.5786 136.455C50.1367 136.352 50.4451 136.231 50.5023 136.089C50.5595 135.948 50.2655 135.747 49.6202 135.485L48.0773 134.857C45.7876 133.927 44.9771 132.641 45.6445 130.997C46.0048 130.11 46.6358 129.547 47.5374 129.307C48.4389 129.069 49.6215 129.246 51.0838 129.84C53.5752 130.852 54.6017 131.896 54.1632 132.976C53.9252 133.562 53.3735 133.808 52.5071 133.714L51.7655 132.937C51.9646 132.677 52.1181 132.417 52.2248 132.154C52.5773 131.286 52.1077 130.592 50.8171 130.067C50.03 129.747 49.3652 129.648 48.824 129.769C48.2815 129.89 47.9225 130.167 47.7468 130.601C47.5712 131.034 47.5816 131.376 47.7794 131.627C47.9771 131.878 48.4598 132.159 49.226 132.47L50.6935 133.066C51.5105 133.398 52.04 133.771 52.282 134.187C52.524 134.604 52.5643 135.01 52.403 135.409C52.2417 135.807 51.9802 136.089 51.6198 136.253C51.2595 136.419 50.6766 136.567 49.8713 136.697C50.9069 137.505 51.1801 138.509 50.6922 139.709C50.3852 140.465 49.8648 140.964 49.1324 141.207C48.3999 141.449 47.4879 141.351 46.399 140.908C45.7433 140.642 45.2347 140.289 44.873 139.848C44.8235 140.145 44.7533 140.403 44.6622 140.626C44.4333 141.191 44.1158 141.538 43.7112 141.667C43.3066 141.796 42.9176 141.785 42.5442 141.633C42.1709 141.482 41.9107 141.261 41.7637 140.972C41.6166 140.683 41.6127 140.367 41.7519 140.025C41.8912 139.681 42.085 139.464 42.3348 139.372C42.5833 139.279 42.837 139.285 43.0946 139.39C43.3521 139.495 43.5356 139.649 43.6475 139.852C43.758 140.056 43.7685 140.285 43.6761 140.541L43.6709 140.54ZM47.1146 145.339L46.8544 145.286C46.8765 144.825 46.7737 144.466 46.5434 144.208C46.3132 143.95 45.9086 143.703 45.3283 143.467C44.7481 143.232 44.2927 143.124 43.9623 143.142C43.6319 143.16 43.3196 143.357 43.0269 143.731L42.8187 143.593C43.7372 141.851 44.8222 141.235 46.0725 141.742C46.8388 142.053 47.2603 142.536 47.3357 143.189C47.4099 143.759 47.3357 144.476 47.1146 145.337V145.339ZM48.0265 139.013L48.3583 138.196C48.6328 137.521 48.7616 137.038 48.7434 136.749C48.7265 136.46 48.599 136.268 48.3609 136.171C48.1241 136.075 47.9043 136.125 47.7026 136.318C47.5009 136.512 47.2499 136.978 46.9506 137.714L46.6501 138.456C46.3301 139.243 46.1714 139.78 46.1714 140.068C46.1714 140.355 46.291 140.548 46.5278 140.644C46.7646 140.74 46.9962 140.684 47.2212 140.476C47.4463 140.268 47.7156 139.78 48.0265 139.014V139.013Z" fill="#EC008C"/>
<path d="M44.1078 132.253C44.3641 133.229 44.1767 134.277 43.5432 135.401C42.9096 136.525 42.0822 137.193 41.0583 137.402C40.0344 137.613 38.9911 137.419 37.9282 136.821C35.7751 135.608 35.3496 133.945 36.6532 131.83L40.6654 134.089L40.9776 133.533C41.5006 132.603 41.7777 131.835 41.8077 131.228C41.8376 130.62 41.5592 130.15 40.9698 129.819C39.8692 129.199 38.818 129.382 37.8137 130.365L37.5821 130.178C38.1467 129.596 38.7712 129.248 39.4542 129.133C40.1372 129.019 40.949 129.225 41.887 129.754C43.1099 130.443 43.8502 131.275 44.1078 132.25V132.253ZM40.4911 134.367L39.0262 133.542L38.6333 134.239C38.2001 135.008 37.9503 135.557 37.8839 135.888C37.8163 136.218 37.9178 136.46 38.1884 136.612C38.459 136.765 38.7426 136.727 39.0379 136.501C39.3332 136.274 39.6884 135.795 40.0995 135.066L40.4924 134.368L40.4911 134.367Z" fill="#EC008C"/>
<path d="M29.4961 130.441C29.8187 130.683 30.2584 130.685 30.8152 130.45C31.3721 130.214 31.8664 129.81 32.2971 129.235L34.9211 125.734L33.9935 125.039L34.1692 124.804L38.2451 127.86L38.0682 128.095L37.35 127.557L33.0412 133.306L33.7593 133.844L33.5837 134.08L30.4354 131.72L31.376 130.466C30.9297 130.825 30.4562 131.003 29.954 131.002C29.4518 130.999 28.9965 130.845 28.5867 130.538C28.1769 130.231 27.931 129.866 27.8464 129.443C27.7632 129.02 27.8789 128.596 28.1951 128.175C28.5112 127.752 28.8508 127.499 29.2124 127.416C29.5741 127.333 29.9527 127.441 30.3495 127.737C30.7463 128.034 30.9401 128.384 30.931 128.786C30.9232 129.188 30.676 129.567 30.1895 129.924L29.7185 129.572C29.1682 129.853 29.0928 130.144 29.4935 130.443L29.4961 130.441Z" fill="#EC008C"/>
<path d="M23.6661 132.053L20.7285 129.338L28.8401 120.56L28.1688 119.94L28.3678 119.724L31.9286 123.015L31.7295 123.231L31.07 122.621L23.1574 131.183L23.8652 131.837L23.6661 132.053Z" fill="#EC008C"/>
<path d="M26.6273 119.291C26.5428 120.296 26.0146 121.222 25.0427 122.07C24.0709 122.918 23.0666 123.27 22.031 123.125C20.9954 122.981 20.0769 122.45 19.2755 121.53C17.6519 119.667 17.8067 117.958 19.7426 116.401L22.7686 119.872L23.2487 119.453C24.0527 118.751 24.5705 118.119 24.8021 117.557C25.0336 116.994 24.9269 116.459 24.4833 115.95C23.6533 114.999 22.6008 114.819 21.3259 115.411L21.1697 115.157C21.897 114.798 22.6008 114.678 23.2838 114.798C23.9655 114.918 24.6616 115.385 25.3693 116.196C26.2917 117.255 26.7119 118.286 26.6273 119.291ZM22.511 120.075L21.4052 118.807L20.8029 119.333C20.1381 119.912 19.7192 120.346 19.5448 120.635C19.3705 120.924 19.3861 121.186 19.5891 121.42C19.7933 121.654 20.0717 121.714 20.4269 121.599C20.782 121.485 21.2751 121.152 21.9074 120.601L22.5097 120.076L22.511 120.075Z" fill="#EC008C"/>
<path d="M13.4605 112.698C13.683 113.034 14.0967 113.184 14.7004 113.148C15.304 113.113 15.9051 112.896 16.5035 112.498L20.1475 110.074L19.5061 109.109L19.7507 108.946L22.5712 113.187L22.3267 113.35L21.8297 112.602L15.8478 116.58L16.3448 117.328L16.1002 117.491L13.9211 114.214L15.2259 113.346C14.6847 113.536 14.1787 113.545 13.7064 113.376C13.2342 113.207 12.8569 112.909 12.5733 112.482C12.2896 112.057 12.1791 111.63 12.2415 111.202C12.304 110.775 12.555 110.415 12.9948 110.122C13.4345 109.83 13.8391 109.705 14.206 109.748C14.5742 109.791 14.8955 110.018 15.17 110.431C15.4445 110.843 15.5109 111.237 15.3678 111.613C15.2259 111.989 14.8656 112.264 14.2892 112.438L13.964 111.949C13.3512 112.03 13.1834 112.279 13.4605 112.696V112.698Z" fill="#EC008C"/>
<path d="M9.15595 108.367C9.42264 108.879 9.48249 109.311 9.33548 109.664C9.18847 110.017 8.92177 110.295 8.53538 110.496C8.14899 110.697 7.76911 110.746 7.39443 110.64C7.01975 110.535 6.70751 110.241 6.45512 109.758C6.20274 109.275 6.12598 108.85 6.22095 108.481C6.31722 108.111 6.57481 107.817 6.99503 107.598C7.41524 107.38 7.81334 107.325 8.18932 107.436C8.5666 107.546 8.88795 107.857 9.15464 108.369L9.15595 108.367ZM11.296 110.033L9.44606 106.486L16.0758 103.027L15.653 102.216L15.9132 102.081L18.1561 106.381L17.8959 106.516L17.4809 105.72L11.1113 109.044L11.5575 109.897L11.2973 110.033H11.296Z" fill="#EC008C"/>
<path d="M8.95666 105.056L8.68345 105.164L6.93885 100.763L7.21205 100.655L7.53729 101.474L11.9203 97.8225L6.18298 98.0593L6.58628 99.0766L6.31308 99.1846L5.46484 97.0445L5.73805 96.9365L6.03857 97.695L15.3457 97.2904C16.4294 97.2475 17.2426 97.358 17.7864 97.6221C18.3302 97.8862 18.7205 98.3169 18.9572 98.914C19.194 99.5112 19.2435 100.035 19.1068 100.488C18.9702 100.941 18.6892 101.251 18.2638 101.42C17.8384 101.589 17.4702 101.606 17.1606 101.47C16.8497 101.336 16.622 101.087 16.4776 100.722C16.1445 99.8819 16.3267 99.3238 17.0253 99.0467C17.1775 98.9869 17.3714 98.9452 17.6081 98.9218L17.8189 99.4526C18.0843 99.4409 18.2794 99.3745 18.4082 99.2549C18.5357 99.1339 18.5578 98.9673 18.4733 98.7553C18.3094 98.3403 17.9581 98.0528 17.4195 97.8914C16.8809 97.7301 16.1341 97.669 15.1779 97.708L14.1046 97.747L14.6341 99.0831L8.71077 104.434L8.95796 105.056H8.95666Z" fill="#EC008C"/>
<path d="M1.0668 97.6416L0 93.7868L11.5188 90.5994L11.2742 89.7187L11.5578 89.6406L12.851 94.3137L12.5674 94.3918L12.328 93.5266L1.09282 96.636L1.34911 97.5648L1.0655 97.6429L1.0668 97.6416Z" fill="#EC008C"/>
<path d="M10.3068 88.3565C9.70448 89.1657 8.76778 89.6731 7.49413 89.88C6.22047 90.0868 5.1823 89.8552 4.3796 89.1865C3.5769 88.5178 3.07732 87.5811 2.88087 86.3777C2.48538 83.9384 3.51965 82.5685 5.985 82.268L6.72265 86.8123L7.35102 86.7108C8.40351 86.5404 9.17758 86.2763 9.67065 85.9198C10.1637 85.5646 10.3563 85.0534 10.2483 84.3873C10.0453 83.1409 9.24654 82.4332 7.85189 82.2628V81.9648C8.6598 82.0429 9.32199 82.3135 9.83718 82.7753C10.3537 83.2372 10.6984 84.0009 10.8702 85.0638C11.0952 86.4493 10.9066 87.5473 10.3055 88.3565H10.3068ZM6.39871 86.85L6.1294 85.19L5.33971 85.3187C4.46936 85.4606 3.88393 85.6076 3.5834 85.7611C3.28288 85.9146 3.15798 86.1449 3.20742 86.4506C3.25686 86.7563 3.46241 86.9554 3.82538 87.0451C4.18835 87.1349 4.7816 87.1128 5.60902 86.9788L6.39871 86.85Z" fill="#EC008C"/>
<path d="M6.10859 73.9174L6.1203 73.4439L4.86356 73.4126C3.82929 73.3879 3.13457 73.4282 2.7781 73.5336C2.42164 73.639 2.2395 73.855 2.23169 74.1815C2.22649 74.378 2.27463 74.5562 2.3735 74.7162C2.47368 74.8762 2.61288 74.9595 2.79241 74.9634C2.97195 74.9673 3.15539 74.94 3.34143 74.8788L3.35183 74.4703C3.58211 74.3884 3.85791 74.3519 4.17925 74.3597C4.50059 74.3676 4.7751 74.5107 5.00147 74.7878C5.22914 75.0662 5.33712 75.4109 5.32671 75.8246C5.30459 76.76 4.84145 77.218 3.93727 77.1959C2.59857 77.1633 1.95719 76.0094 2.01313 73.7353C2.04435 72.4408 2.28634 71.5509 2.73907 71.0657C3.19181 70.5817 4.00622 70.3527 5.181 70.3814L8.49458 70.462C9.0605 70.4763 9.34672 70.3254 9.35452 70.0093C9.36363 69.6398 8.80811 69.4082 7.68928 69.3159L7.71139 69.0713C8.66761 69.1376 9.322 69.3341 9.67326 69.658C10.0245 69.982 10.191 70.5037 10.1741 71.2218C10.1416 72.528 9.7214 73.2682 8.91089 73.4452C9.3207 73.5974 9.61992 73.8159 9.80986 74.1035C9.9985 74.391 10.087 74.8073 10.074 75.3511C10.0349 76.9617 9.35712 77.7514 8.04054 77.7189C7.26776 77.7006 6.74477 77.3793 6.47157 76.7574C6.19836 76.1356 6.07737 75.1885 6.10859 73.9148V73.9174ZM9.1958 74.5562C9.36103 74.5003 9.44429 74.3884 9.44949 74.2192C9.4534 74.0501 9.3194 73.8888 9.04489 73.7353C8.77039 73.5818 8.3892 73.4985 7.90003 73.4868L6.3818 73.4504L6.3792 73.5649C6.36228 74.2401 6.85015 74.5887 7.84019 74.6134L8.10169 74.6199C8.66761 74.6343 9.03318 74.6121 9.19711 74.5562H9.1958Z" fill="#EC008C"/>
<path d="M2.60262 68.9229L2.3125 68.88L3.01112 64.1965L3.30124 64.2394L3.17114 65.1111L8.79525 64.151L3.71365 61.4775L3.55233 62.5599L3.26221 62.5169L3.60176 60.2402L3.89188 60.2832L3.77089 61.0911L12.0243 65.409C12.9831 65.9151 13.6323 66.4199 13.9692 66.9207C14.3075 67.4229 14.4285 67.9914 14.3335 68.6263C14.2385 69.2612 14.0187 69.7399 13.6739 70.0626C13.3291 70.3852 12.9297 70.5127 12.4783 70.4451C12.0269 70.3774 11.699 70.2083 11.4974 69.9351C11.2957 69.6632 11.2242 69.3327 11.2814 68.945C11.4141 68.0513 11.8525 67.6597 12.5954 67.7703C12.7567 67.795 12.9454 67.8561 13.1626 67.9537L13.0781 68.5183C13.3122 68.6419 13.5152 68.6822 13.6869 68.6419C13.8586 68.6016 13.9601 68.4676 13.9939 68.2425C14.0603 67.8015 13.9003 67.3761 13.5152 66.9663C13.1301 66.5565 12.5147 66.1297 11.6678 65.6835L10.7194 65.1787L10.5073 66.5994L2.69889 68.2581L2.60001 68.9203L2.60262 68.9229Z" fill="#EC008C"/>
<path d="M3.82812 59.1114L4.97819 55.3477L6.41446 55.7861C5.98644 55.4739 5.67941 55.1005 5.49337 54.6673C5.30733 54.2353 5.32034 53.6694 5.5337 52.9721C6.02677 51.3589 7.14301 50.8177 8.88111 51.3485L13.5815 52.7848L13.8482 51.9105L14.1292 51.9964L12.7788 56.4158L12.4978 56.3299L12.693 55.6898L7.61786 54.1391C6.99339 53.9478 6.57708 53.8672 6.36893 53.8945C6.16207 53.9218 6.02417 54.0454 5.95782 54.264C5.85634 54.597 5.98514 54.9574 6.34421 55.3464C6.70328 55.7354 7.19504 56.0242 7.81951 56.2154L12.1296 57.532L12.3352 56.8607L12.6162 56.9466L11.2606 61.3816L10.9796 61.2957L11.2424 60.4371L4.37193 58.3373L4.10914 59.196L3.82812 59.1101V59.1114Z" fill="#EC008C"/>
<path d="M7.21615 48.7622L8.84106 45.1064L15.6738 48.1442L16.0445 47.309L16.3125 47.4287L14.3429 51.8598L14.0749 51.7401L14.4391 50.9192L7.87444 48.0011L7.48284 48.8819L7.21484 48.7622H7.21615Z" fill="#EC008C"/>
<path d="M16.7912 38.9197L17.0514 38.5242L16.0002 37.8347C15.1364 37.2675 14.5249 36.9344 14.1659 36.8355C13.8081 36.7367 13.5388 36.8238 13.3593 37.097C13.2513 37.261 13.1979 37.4379 13.1979 37.6252C13.1979 37.8139 13.2721 37.957 13.423 38.0559C13.5739 38.1547 13.743 38.2276 13.9343 38.2744L14.1581 37.9336C14.3961 37.9869 14.6511 38.1014 14.9191 38.277C15.1871 38.4527 15.3445 38.7193 15.3914 39.0758C15.4382 39.4323 15.3471 39.7822 15.1208 40.1283C14.6069 40.9115 13.972 41.0546 13.2174 40.5576C12.0986 39.8226 12.1624 38.5047 13.4113 36.6027C14.1216 35.5203 14.7981 34.8932 15.4382 34.7202C16.0783 34.5484 16.8901 34.7852 17.8723 35.4305L20.6434 37.2493C21.117 37.5602 21.4396 37.5836 21.6126 37.3195C21.8156 37.0099 21.4669 36.5207 20.5653 35.8507L20.7137 35.6556C21.4903 36.2176 21.9418 36.7289 22.0693 37.1907C22.1968 37.6513 22.0628 38.182 21.6686 38.7831C20.9517 39.8746 20.2024 40.2818 19.4218 40.0034C19.6898 40.3495 19.8277 40.6929 19.8368 41.0377C19.8446 41.3824 19.7002 41.7818 19.401 42.2359C18.5163 43.5824 17.5237 43.8946 16.423 43.1713C15.7778 42.7472 15.502 42.1995 15.5982 41.5269C15.6945 40.8542 16.0926 39.9865 16.7912 38.921V38.9197ZM19.0744 41.0936C19.2436 41.134 19.375 41.0832 19.4673 40.9414C19.5597 40.8009 19.5311 40.5928 19.3789 40.3169C19.2279 40.0411 18.9469 39.7692 18.5371 39.5012L17.2674 38.6673L17.2049 38.7623C16.8342 39.3269 17.0631 39.8798 17.8918 40.4236L18.1104 40.5667C18.584 40.8777 18.9053 41.052 19.0744 41.0923V41.0936Z" fill="#EC008C"/>
<path d="M26.4179 32.7116L25.4448 32.0859C25.8494 32.9406 25.6764 33.7914 24.9244 34.6371C24.3025 35.337 23.5675 35.6557 22.7192 35.5933C21.871 35.5308 20.9473 35.056 19.9469 34.1661C17.9213 32.3656 17.6246 30.66 19.057 29.0494C19.6932 28.3339 20.3124 28.0385 20.9135 28.166L17.3137 24.9656L16.6515 25.7098L16.4316 25.5146L19.1442 22.4639L28.0767 30.405L28.6087 29.8066L28.8286 30.0017L26.4205 32.7103L26.4179 32.7116ZM24.2271 33.5169C24.5874 33.677 24.8737 33.6366 25.087 33.3972C25.3004 33.1579 25.3797 32.856 25.3225 32.4931C25.2665 32.1301 25.0311 31.7645 24.6161 31.395L21.9556 29.0299C21.6056 28.7189 21.2478 28.5238 20.881 28.4457C20.5141 28.3677 20.211 28.4614 19.9729 28.7307C19.7348 28.9987 19.7504 29.3408 20.0223 29.7571C20.2929 30.1734 20.8771 30.7784 21.7708 31.5746L22.4057 32.1392C23.2604 32.899 23.8667 33.3582 24.2271 33.5182V33.5169Z" fill="#EC008C"/>
<path d="M29.6306 24.3038L29.9935 23.9994L29.1843 23.0366C28.5195 22.2443 28.0291 21.75 27.7142 21.5522C27.3994 21.3545 27.1171 21.361 26.866 21.5717C26.7164 21.6979 26.6136 21.8515 26.559 22.0323C26.5043 22.2131 26.5356 22.3718 26.6513 22.5097C26.7671 22.6476 26.9089 22.766 27.0781 22.8649L27.3903 22.6021C27.6037 22.7218 27.8144 22.9039 28.02 23.1498C28.2268 23.3957 28.301 23.6962 28.2424 24.0501C28.1852 24.404 27.9978 24.7149 27.6804 24.9803C26.9636 25.5826 26.3144 25.5371 25.7342 24.8463C24.8729 23.8211 25.3126 22.5774 27.0559 21.1138C28.0473 20.2812 28.8747 19.874 29.5382 19.8922C30.2004 19.9117 30.9107 20.3709 31.6666 21.2712L33.7989 23.8094C34.1632 24.2426 34.4663 24.3584 34.707 24.1555C34.9906 23.9174 34.7967 23.3476 34.1254 22.4473L34.3232 22.3029C34.906 23.064 35.1922 23.6845 35.1818 24.162C35.1714 24.6407 34.8904 25.1104 34.3401 25.5722C33.3396 26.4127 32.5057 26.587 31.837 26.0965C31.9944 26.505 32.0283 26.8745 31.9372 27.2063C31.8461 27.538 31.5924 27.8789 31.1761 28.2288C29.9428 29.2644 28.902 29.2787 28.0551 28.2705C27.5581 27.6785 27.4527 27.0749 27.7377 26.4582C28.0226 25.8415 28.6535 25.1247 29.628 24.3051L29.6306 24.3038ZM31.1943 27.041C31.3453 27.1282 31.4858 27.1165 31.6146 27.0085C31.7433 26.9005 31.7759 26.6924 31.7095 26.3853C31.6432 26.0783 31.4532 25.7375 31.1384 25.3628L30.1614 24.1997L30.0742 24.2726C29.5577 24.7071 29.6176 25.3029 30.255 26.0614L30.4229 26.2618C30.7871 26.695 31.0447 26.9552 31.1956 27.041H31.1943Z" fill="#EC008C"/>
<path d="M40.6335 21.1187L39.8802 20.2406C40.022 21.176 39.6122 21.941 38.6482 22.5355C37.852 23.0273 37.0558 23.1209 36.2622 22.8178C35.4673 22.5147 34.7192 21.794 34.0167 20.6543C32.5935 18.3477 32.799 16.6278 34.6334 15.4972C35.4491 14.9938 36.1256 14.8897 36.6655 15.1837L34.1364 11.0843L33.2882 11.6073L33.1334 11.3575L36.607 9.21484L42.8829 19.3872L43.5633 18.9669L43.7181 19.2167L40.6335 21.12V21.1187ZM38.3047 21.2606C38.604 21.5168 38.8902 21.5611 39.1634 21.3933C39.4366 21.2254 39.5979 20.9587 39.6486 20.5945C39.6994 20.2315 39.5784 19.8126 39.287 19.3403L37.4175 16.3117C37.1716 15.9136 36.8841 15.6234 36.5549 15.4426C36.2258 15.2618 35.9083 15.2657 35.6026 15.4543C35.2969 15.643 35.2136 15.976 35.3541 16.4522C35.4946 16.9283 35.8784 17.6764 36.5081 18.695L36.9543 19.4171C37.5541 20.3902 38.0042 21.0043 38.3034 21.2619L38.3047 21.2606Z" fill="#EC008C"/>
<path d="M46.128 13.9911L46.5626 13.8038L46.0656 12.6485C45.6571 11.6988 45.3305 11.0835 45.086 10.8038C44.8414 10.524 44.5695 10.4486 44.2689 10.5774C44.0894 10.6541 43.9463 10.7725 43.8422 10.93C43.7382 11.0874 43.7212 11.2487 43.7928 11.4139C43.863 11.5791 43.9658 11.734 44.0985 11.8784L44.4732 11.717C44.6436 11.8927 44.7919 12.1281 44.9194 12.4235C45.0456 12.7188 45.0313 13.0271 44.8739 13.3498C44.7165 13.6724 44.4472 13.9157 44.0673 14.0783C43.2074 14.4478 42.5985 14.2175 42.242 13.3875C41.7138 12.1581 42.4931 11.0939 44.5838 10.1949C45.7742 9.68362 46.6836 9.53271 47.3119 9.74086C47.9416 9.95032 48.488 10.5943 48.9525 11.6754L50.2612 14.721C50.485 15.2414 50.7413 15.4391 51.0314 15.3142C51.371 15.1685 51.3501 14.5675 50.9677 13.5111L51.1992 13.4291C51.5375 14.3268 51.6325 15.002 51.4841 15.4573C51.3358 15.9127 50.9325 16.2809 50.2716 16.5645C49.0721 17.081 48.2226 17.0068 47.7243 16.3446C47.7582 16.7804 47.6827 17.1447 47.5006 17.4361C47.3171 17.7275 46.9763 17.9812 46.4767 18.1959C44.9962 18.8321 43.997 18.5458 43.4767 17.3359C43.1709 16.6256 43.2438 16.0168 43.6952 15.5094C44.1467 15.002 44.9572 14.4959 46.1267 13.9924L46.128 13.9911ZM46.8371 17.064C46.9568 17.1902 47.0934 17.2202 47.2495 17.1538C47.4043 17.0875 47.4941 16.8975 47.5201 16.584C47.5448 16.2704 47.4615 15.8893 47.2677 15.4391L46.6679 14.0445L46.5626 14.09C45.942 14.3567 45.8288 14.9448 46.2191 15.8554L46.3219 16.0948C46.5457 16.6152 46.7174 16.9378 46.8371 17.064Z" fill="#EC008C"/>
<path d="M50.2715 8.00239L54.0794 7.00845L54.4593 8.46164C54.5009 7.93344 54.6584 7.4768 54.929 7.09041C55.1996 6.70532 55.6874 6.42041 56.3939 6.23567C58.0266 5.81026 59.0726 6.47635 59.5305 8.23527L60.7716 12.9903L61.6563 12.7601L61.7305 13.045L57.259 14.2119L57.1849 13.927L57.8327 13.7579L56.4927 8.62296C56.3275 7.99069 56.1792 7.59389 56.0465 7.43127C55.9138 7.26865 55.7369 7.21661 55.5157 7.27385C55.1788 7.36232 54.9394 7.66024 54.7963 8.17022C54.6532 8.6802 54.6649 9.25133 54.8301 9.8823L55.9684 14.2432L56.6476 14.0662L56.7217 14.3511L52.2347 15.522L52.1605 15.2371L53.0295 15.0107L51.216 8.05964L50.3469 8.28601L50.2728 8.00109L50.2715 8.00239Z" fill="#EC008C"/>
<path d="M66.0997 11.6642C65.3647 11.0085 64.9614 10.0302 64.8872 8.7318C64.8144 7.43343 65.1292 6.41217 65.8343 5.66931C66.5395 4.92645 67.5659 4.51665 68.9137 4.44119C70.2615 4.36573 71.2841 4.63243 71.984 5.24129C72.6839 5.85015 73.0703 6.81807 73.1458 8.14376C73.3019 10.9148 71.9996 12.3784 69.239 12.5345C67.8808 12.6113 66.8335 12.3212 66.0997 11.6655V11.6642ZM70.0599 9.10258L69.9818 7.71704C69.922 6.66325 69.8218 5.89698 69.68 5.41952C69.5382 4.94207 69.2611 4.7157 68.8487 4.73911C68.6093 4.75212 68.4207 4.83148 68.2815 4.97589C68.1422 5.1203 68.0486 5.35187 68.0017 5.67061C67.9315 6.16498 67.925 6.91304 67.9809 7.91219L68.0525 9.18324C68.1188 10.3684 68.1943 11.0775 68.2789 11.3129C68.3634 11.5484 68.4467 11.7397 68.5325 11.888C68.6665 12.1417 68.9072 12.2587 69.2559 12.2392C69.68 12.2158 69.9428 11.9556 70.0456 11.4586C70.1236 11.1061 70.1288 10.3203 70.0599 9.10258Z" fill="#EC008C"/>
<path d="M74.4474 0L78.4414 0.214661L77.8 12.1498L78.7133 12.1992L78.6977 12.4932L73.8555 12.2331L73.8711 11.939L74.7675 11.9872L75.3932 0.346059L74.4318 0.29402L74.4474 0Z" fill="#EC008C"/>
<path d="M80.5748 4.56022L84.4244 5.37333L84.1134 6.84343C84.6937 5.83127 85.5835 5.45139 86.7817 5.70508C87.9799 5.95877 88.5849 6.68731 88.5979 7.89071C89.2133 6.81871 90.1174 6.4089 91.3104 6.66129C92.8755 6.99174 93.4714 8.04683 93.0954 9.82526L92.0793 14.6337L92.9744 14.8223L92.9132 15.1098L88.4886 14.1744L88.5498 13.8869L89.1092 14.0053L90.2059 8.8131C90.3763 8.0039 90.4076 7.51473 90.2983 7.3469C90.2475 7.27015 90.1695 7.21941 90.0628 7.19729C89.7532 7.13224 89.4383 7.28186 89.117 7.64873C88.7944 8.0143 88.5667 8.51648 88.4314 9.15656L87.4791 13.6618L88.0541 13.7828L87.9929 14.0703L83.8871 13.2026L83.9482 12.9151L84.5076 13.0335L85.6044 7.84127C85.7748 7.03207 85.806 6.5429 85.6967 6.37508C85.646 6.29702 85.5679 6.24758 85.4613 6.22546C85.1633 6.16302 84.8459 6.33214 84.5115 6.73415C84.1759 7.13615 83.9417 7.65133 83.809 8.2797L82.8775 12.6887L83.4525 12.8097L83.3914 13.0972L78.9668 12.1618L79.0279 11.8743L79.9061 12.0603L81.3918 5.03117L80.5137 4.84513L80.5748 4.55762V4.56022Z" fill="#EC008C"/>
<path d="M98.0111 13.3444L98.4482 13.5253L98.9295 12.3635C99.325 11.4086 99.5384 10.7451 99.5683 10.3743C99.5982 10.0035 99.4629 9.75633 99.1611 9.63144C98.9803 9.55598 98.7968 9.53647 98.6121 9.57159C98.4261 9.60672 98.2999 9.7069 98.2309 9.87342C98.162 10.0399 98.1229 10.2208 98.1112 10.4159L98.4885 10.572C98.4807 10.8166 98.4157 11.0872 98.2934 11.3838C98.1698 11.6805 97.9382 11.8847 97.5973 11.9966C97.2565 12.1085 96.8948 12.0851 96.5123 11.9264C95.6472 11.5673 95.3883 10.9714 95.7344 10.1362C96.2469 8.89899 97.5544 8.71685 99.6555 9.58851C100.852 10.0842 101.594 10.6306 101.883 11.2277C102.172 11.8249 102.091 12.6666 101.641 13.7516L100.371 16.8128C100.154 17.3358 100.191 17.6571 100.483 17.7781C100.825 17.9199 101.24 17.4854 101.731 16.4746L101.95 16.5838C101.543 17.4516 101.126 17.9915 100.696 18.2022C100.267 18.413 99.7205 18.3805 99.057 18.106C97.851 17.6051 97.3111 16.9455 97.4386 16.1272C97.1498 16.455 96.8363 16.6554 96.5006 16.7282C96.1637 16.8011 95.7448 16.7335 95.2413 16.524C93.753 15.9073 93.2612 14.9901 93.766 13.7737C94.0626 13.0595 94.5492 12.6874 95.2283 12.6562C95.9061 12.625 96.835 12.8539 98.0111 13.3418V13.3444ZM96.3029 15.9945C96.2951 16.1675 96.3692 16.2872 96.5253 16.3523C96.6815 16.4173 96.8805 16.3497 97.1225 16.1493C97.3645 15.949 97.5791 15.6224 97.7665 15.171L98.348 13.7685L98.2426 13.7243C97.6195 13.4654 97.1173 13.7946 96.7387 14.7091L96.6385 14.9498C96.4213 15.4728 96.3094 15.8215 96.3029 15.9945Z" fill="#EC008C"/>
<path d="M105.714 21.5336L105.866 21.2825L106.508 21.6715L106.89 17.4759L106.581 17.3848L104.664 20.5566L105.306 20.9456L105.154 21.1966L101.145 18.7716L101.297 18.5205L102.066 18.985L108.098 9.00913L107.273 8.51085L107.426 8.25977L110.848 10.3296L106.75 17.1064L107.025 17.1571L111.749 16.4455L110.435 15.6519L110.587 15.4008L113.34 17.0648L113.188 17.3158L112.209 16.7239L109.693 17.1298L109.247 23.3276L109.75 23.6321L109.598 23.8832L105.714 21.5349V21.5336Z" fill="#EC008C"/>
<path d="M111.797 22.7941L115.009 18.7767L114.308 18.216L114.492 17.987L115.193 18.5478L116.508 16.9033L119.349 18.2134L117.565 20.4446L119.222 21.7703L119.039 21.9992L117.381 20.6735L113.945 24.9707C113.625 25.3701 113.431 25.6953 113.362 25.9477C113.293 26.1988 113.387 26.4264 113.642 26.6307C113.897 26.8349 114.222 26.8857 114.618 26.7829C115.013 26.6814 115.417 26.4329 115.83 26.0375L116.027 26.2365C115.489 26.7686 114.93 27.0847 114.349 27.1849C113.767 27.2851 113.123 27.0522 112.418 26.4876C111.713 25.923 111.285 25.3518 111.135 24.7716C110.986 24.1914 111.207 23.5318 111.797 22.7928V22.7941Z" fill="#EC008C"/>
<path d="M120.248 28.1994L120.58 28.5377L121.479 27.6582C122.218 26.9349 122.673 26.408 122.846 26.0788C123.019 25.7497 122.992 25.4687 122.763 25.2345C122.626 25.094 122.465 25.0042 122.28 24.9639C122.095 24.9236 121.939 24.9665 121.81 25.0914C121.682 25.2163 121.575 25.3685 121.488 25.5441L121.774 25.8356C121.671 26.058 121.506 26.2818 121.276 26.5056C121.047 26.7306 120.753 26.8269 120.395 26.797C120.037 26.7658 119.713 26.6031 119.425 26.3078C118.77 25.6391 118.765 24.9886 119.41 24.3564C120.366 23.4197 121.641 23.7644 123.232 25.3893C124.138 26.3143 124.608 27.1092 124.639 27.7714C124.67 28.4336 124.265 29.1765 123.426 29.9987L121.057 32.317C120.653 32.7125 120.56 33.0234 120.781 33.2498C121.04 33.5139 121.593 33.2771 122.44 32.5395L122.6 32.7255C121.885 33.3643 121.289 33.6973 120.811 33.7221C120.334 33.7481 119.843 33.5035 119.341 32.9909C118.428 32.0581 118.19 31.2398 118.628 30.536C118.234 30.7246 117.867 30.7858 117.529 30.7207C117.191 30.6557 116.832 30.428 116.45 30.039C115.324 28.8876 115.23 27.8521 116.172 26.9297C116.724 26.3885 117.318 26.2376 117.954 26.4756C118.591 26.7137 119.354 27.2875 120.245 28.1968L120.248 28.1994ZM117.637 29.9675C117.562 30.1249 117.584 30.2628 117.702 30.3838C117.82 30.5048 118.03 30.5204 118.33 30.4306C118.632 30.3408 118.957 30.1249 119.307 29.7827L120.392 28.7198L120.313 28.6379C119.841 28.1552 119.25 28.2606 118.544 28.954L118.356 29.1361C117.952 29.5316 117.712 29.8087 117.637 29.9662V29.9675Z" fill="#EC008C"/>
<path d="M127.323 29.8994L129.628 33.0894L128.41 33.9689C128.918 33.8166 129.4 33.7971 129.858 33.909C130.315 34.0222 130.759 34.3735 131.185 34.9641C132.174 36.3314 131.931 37.5478 130.458 38.612L126.475 41.4911L127.011 42.2326L126.772 42.4044L124.066 38.6589L124.304 38.4871L124.696 39.0296L128.997 35.9216C129.527 35.5391 129.843 35.2568 129.946 35.0747C130.048 34.8925 130.034 34.7091 129.9 34.5231C129.696 34.2408 129.33 34.125 128.805 34.177C128.278 34.2291 127.749 34.4463 127.22 34.8288L123.567 37.4685L123.978 38.037L123.74 38.2087L121.023 34.4502L121.262 34.2785L121.787 35.007L127.61 30.7997L127.085 30.0711L127.323 29.8994Z" fill="#EC008C"/>
<path d="M128.337 45.7366L130.981 44.4903L131.064 44.6672C130.328 45.3268 129.889 45.9552 129.75 46.5497C129.61 47.1456 129.693 47.7687 129.999 48.4179C130.472 49.4223 131.029 49.7735 131.669 49.4717C131.945 49.3416 132.093 49.1218 132.115 48.8095C132.15 48.323 132.087 47.7518 131.921 47.0961C131.784 46.3429 131.755 45.6703 131.837 45.0783C131.936 44.3693 132.37 43.8346 133.138 43.4729C133.905 43.1113 134.63 43.0579 135.31 43.3155C135.991 43.5718 136.516 44.0948 136.889 44.8819C137.116 45.3645 137.237 45.9149 137.252 46.5341C137.261 46.7579 137.289 46.9192 137.335 47.0181C137.382 47.117 137.454 47.1833 137.557 47.221C137.659 47.2575 137.827 47.2809 138.059 47.2913L138.136 47.4539L135.876 48.5194L135.793 48.3425C136.836 47.2366 137.11 46.1581 136.613 45.1043C136.394 44.6412 136.151 44.3355 135.882 44.1859C135.612 44.0363 135.355 44.0193 135.109 44.1351C134.96 44.2041 134.862 44.2938 134.811 44.4018C134.76 44.5098 134.724 44.5931 134.703 44.6516C134.682 44.7089 134.67 44.7934 134.668 44.9027C134.665 45.012 134.665 45.1017 134.668 45.1733C134.67 45.2436 134.682 45.3502 134.7 45.492C134.719 45.6338 134.737 45.7366 134.755 45.8004C134.903 46.5484 134.985 47.1 135.001 47.4526C135.016 47.8065 135 48.1577 134.947 48.5064C134.828 49.2245 134.353 49.7787 133.522 50.1716C132.689 50.5645 131.944 50.614 131.283 50.3239C130.622 50.0337 130.09 49.46 129.686 48.6027C129.399 47.9925 129.264 47.3342 129.279 46.6291C129.303 46.4743 129.297 46.3611 129.265 46.2934C129.163 46.0762 128.881 45.9513 128.419 45.9162L128.336 45.7392L128.337 45.7366Z" fill="#231F20"/>
<path d="M138.609 49.1481L139.949 52.917L132.903 55.4214L133.209 56.2826L132.932 56.3815L131.307 51.8125L131.584 51.7136L131.884 52.5593L138.653 50.1525L138.331 49.2444L138.608 49.1455L138.609 49.1481Z" fill="#231F20"/>
<path d="M134.328 61.8604L134.616 61.7967L134.779 62.5304L138.075 59.905L137.928 59.6201L134.31 60.4267L134.474 61.1592L134.187 61.2229L133.168 56.6487L133.454 56.585L133.649 57.4618L145.028 54.9262L144.818 53.9856L145.106 53.9219L145.976 57.8261L138.247 59.5486L138.399 59.7828L142.179 62.7047L141.844 61.206L142.132 61.1423L142.832 64.2815L142.544 64.3453L142.296 63.229L140.263 61.6913L135.476 65.6528L135.603 66.2265L135.316 66.2902L134.328 61.8591V61.8604Z" fill="#231F20"/>
<path d="M142.928 65.7308L143.319 69.7118L135.876 70.4403L135.964 71.3497L135.671 71.3783L135.199 66.5517L135.492 66.5231L135.579 67.4169L142.729 66.7169L142.636 65.7581L142.928 65.7295V65.7308Z" fill="#231F20"/>
<path d="M147.935 71.5576L148 75.5568L136.049 75.7507L136.063 76.6652L135.769 76.6704L135.691 71.8217L135.985 71.8165L136 72.7142L147.656 72.5255L147.641 71.5628L147.935 71.5576Z" fill="#231F20"/>
<path d="M143.808 77.975L143.265 81.8727L141.777 81.6659C142.827 82.1745 143.268 83.0358 143.098 84.2483C142.929 85.4608 142.245 86.1165 141.044 86.2128C142.157 86.7527 142.628 87.6256 142.46 88.8329C142.239 90.4175 141.229 91.0849 139.428 90.8338L134.56 90.156L134.434 91.0615L134.143 91.0212L134.766 86.5419L135.057 86.5822L134.978 87.1482L140.234 87.8793C141.053 87.9938 141.543 87.9899 141.703 87.8689C141.777 87.813 141.821 87.731 141.835 87.623C141.878 87.3108 141.706 87.0064 141.319 86.711C140.931 86.4157 140.415 86.2219 139.768 86.1321L135.208 85.4972L135.127 86.0801L134.836 86.0397L135.415 81.8831L135.706 81.9235L135.627 82.4894L140.883 83.2205C141.703 83.335 142.192 83.3311 142.352 83.2101C142.426 83.1542 142.47 83.0722 142.484 82.9642C142.526 82.6624 142.335 82.358 141.911 82.0522C141.487 81.7465 140.956 81.5488 140.32 81.4603L135.856 80.8384L135.775 81.42L135.484 81.3796L136.107 76.9004L136.398 76.9407L136.275 77.8306L143.39 78.8206L143.513 77.9308L143.805 77.9711L143.808 77.975Z" fill="#231F20"/>
<path d="M136.266 95.9831L136.116 96.4319L137.308 96.8313C138.289 97.1592 138.964 97.3257 139.336 97.3296C139.708 97.3335 139.945 97.18 140.049 96.8703C140.112 96.6843 140.118 96.5009 140.07 96.3174C140.022 96.1353 139.913 96.0156 139.742 95.9584C139.572 95.9011 139.388 95.8738 139.192 95.8777L139.062 96.2654C138.817 96.2758 138.543 96.229 138.238 96.1275C137.934 96.026 137.714 95.8087 137.579 95.4757C137.443 95.1426 137.441 94.781 137.572 94.3894C137.869 93.5021 138.446 93.2016 139.302 93.4878C140.572 93.9132 140.845 95.2038 140.125 97.3608C139.714 98.5889 139.221 99.3682 138.645 99.6974C138.07 100.027 137.225 100.006 136.11 99.6323L132.967 98.5811C132.429 98.4016 132.112 98.4614 132.012 98.7607C131.895 99.1119 132.357 99.4957 133.4 99.9133L133.306 100.141C132.411 99.7962 131.844 99.4163 131.603 99.0026C131.363 98.5889 131.356 98.0425 131.585 97.3608C132 96.1223 132.619 95.5381 133.445 95.6071C133.098 95.3417 132.877 95.0438 132.781 94.7133C132.684 94.3829 132.723 93.9588 132.895 93.4436C133.406 91.9162 134.286 91.3607 135.535 91.7796C136.267 92.0242 136.673 92.4848 136.751 93.16C136.829 93.8352 136.667 94.7758 136.262 95.9844L136.266 95.9831ZM133.503 94.4648C133.33 94.47 133.215 94.552 133.162 94.712C133.109 94.872 133.189 95.0659 133.406 95.2936C133.624 95.5212 133.963 95.7125 134.428 95.8686L135.868 96.3499L135.904 96.242C136.119 95.6019 135.756 95.1244 134.817 94.8109L134.57 94.7276C134.032 94.5481 133.677 94.4609 133.504 94.4661L133.503 94.4648Z" fill="#231F20"/>
<path d="M128.536 104.437L129.637 104.794C129.028 104.07 128.98 103.203 129.493 102.194C129.917 101.359 130.546 100.864 131.383 100.709C132.218 100.555 133.233 100.78 134.427 101.386C136.843 102.614 137.564 104.188 136.588 106.11C136.155 106.963 135.631 107.406 135.017 107.435L139.311 109.617L139.762 108.729L140.024 108.861L138.175 112.5L127.519 107.087L127.156 107.8L126.895 107.667L128.536 104.435V104.437ZM130.451 103.102C130.062 103.038 129.796 103.15 129.65 103.436C129.504 103.722 129.504 104.033 129.65 104.37C129.796 104.707 130.117 105.001 130.611 105.252L133.784 106.864C134.202 107.076 134.598 107.174 134.972 107.157C135.347 107.14 135.616 106.971 135.779 106.651C135.942 106.331 135.839 106.004 135.471 105.67C135.102 105.337 134.386 104.899 133.317 104.356L132.56 103.971C131.542 103.453 130.838 103.163 130.449 103.099L130.451 103.102Z" fill="#231F20"/>
<path d="M133.075 112.234L130.857 115.563L124.633 111.417L124.125 112.178L123.881 112.015L126.569 107.979L126.813 108.142L126.315 108.889L132.294 112.871L132.828 112.07L133.072 112.232L133.075 112.234Z" fill="#231F20"/>
<path d="M129.683 117.443L127.124 120.432L125.983 119.455C126.25 119.913 126.382 120.378 126.38 120.849C126.377 121.32 126.139 121.832 125.665 122.386C124.569 123.668 123.329 123.717 121.949 122.536L118.215 119.339L117.62 120.034L117.396 119.843L120.402 116.333L120.626 116.524L120.19 117.033L124.22 120.484C124.716 120.91 125.064 121.15 125.266 121.208C125.468 121.265 125.642 121.208 125.792 121.033C126.018 120.769 126.044 120.387 125.871 119.887C125.698 119.388 125.362 118.924 124.867 118.5L121.444 115.569L120.987 116.103L120.763 115.911L123.779 112.39L124.003 112.581L123.419 113.263L128.876 117.936L129.46 117.254L129.684 117.445L129.683 117.443Z" fill="#231F20"/>
<path d="M122.443 125.57L119.495 128.275L114.439 122.765L113.765 123.383L113.566 123.166L117.139 119.888L117.338 120.104L116.676 120.711L121.534 126.005L122.244 125.353L122.443 125.569V125.57Z" fill="#231F20"/>
<path d="M111.833 134.224L111.659 133.988L110.52 125.907L110.35 126.034C109.613 126.575 109.176 127.194 109.038 127.889C108.9 128.583 109.033 129.452 109.435 130.496L109.25 130.631L107.479 127.779L113.004 123.718L113.149 123.916L114.264 132.074L114.409 131.967C115.295 131.315 115.805 130.718 115.937 130.175C116.071 129.631 115.926 128.785 115.502 127.638L115.672 127.511L117.358 130.163L111.833 134.224Z" fill="#231F20"/>
<path d="M107.114 137.395L103.496 138.941L102.905 137.56C103.012 138.722 102.502 139.544 101.375 140.025C100.25 140.507 99.3353 140.258 98.6328 139.28C98.7447 140.51 98.2399 141.365 97.1197 141.845C95.6483 142.475 94.5555 141.953 93.8413 140.281L91.9093 135.763L91.0689 136.122L90.9531 135.852L95.1123 134.073L95.2281 134.344L94.7025 134.569L96.7893 139.448C97.1145 140.209 97.3695 140.626 97.5556 140.7C97.6414 140.734 97.7338 140.73 97.834 140.687C98.1241 140.564 98.2958 140.259 98.3492 139.774C98.4025 139.29 98.301 138.748 98.0434 138.147L96.2338 133.913L95.6939 134.145L95.5781 133.874L99.4368 132.225L99.5526 132.495L99.027 132.72L101.114 137.599C101.439 138.36 101.694 138.778 101.88 138.852C101.966 138.886 102.058 138.882 102.158 138.839C102.439 138.719 102.601 138.398 102.644 137.876C102.687 137.354 102.583 136.799 102.33 136.208L100.558 132.065L100.018 132.296L99.9025 132.025L104.06 130.247L104.176 130.518L103.35 130.87L106.175 137.477L107.001 137.124L107.116 137.395H107.114Z" fill="#231F20"/>
<path d="M92.661 143.069L88.7828 144.051L86.9458 136.802L86.0598 137.027L85.9883 136.742L90.6887 135.551L90.7616 135.836L89.8912 136.057L91.6566 143.021L92.5907 142.784L92.6623 143.069H92.661Z" fill="#231F20"/>
<path d="M85.3743 147.956C84.8005 148.514 83.9224 148.872 82.7411 149.028C81.5598 149.184 80.6179 149.077 79.9154 148.709C79.2141 148.341 78.8043 147.714 78.6873 146.829C78.6105 146.246 78.686 145.712 78.9123 145.226C79.1387 144.741 79.4756 144.232 79.9219 143.702L82.0802 141.21L81.9566 140.271L82.3612 140.218L82.81 143.617C82.8348 143.8 82.7944 143.959 82.6916 144.093L81.8226 145.246C81.5507 145.6 81.3738 145.922 81.2918 146.214C81.2098 146.505 81.1968 146.871 81.2554 147.314C81.3933 148.36 81.9488 148.821 82.9193 148.692C83.3838 148.631 83.7064 148.462 83.8898 148.185C84.0733 147.908 84.15 147.656 84.1201 147.43C84.0902 147.204 84.0316 147.007 83.9445 146.843L83.4267 146.912C83.3109 146.698 83.2315 146.43 83.1886 146.112C83.147 145.793 83.2459 145.501 83.4839 145.233C83.7233 144.965 84.0642 144.802 84.5065 144.744C84.9488 144.685 85.3105 144.783 85.5915 145.036C85.8725 145.29 86.0403 145.633 86.0976 146.064C86.19 146.765 85.9493 147.395 85.3756 147.954L85.3743 147.956ZM81.7992 137.277C82.2038 137.224 82.5212 137.299 82.7515 137.505C82.9818 137.711 83.1197 137.989 83.1665 138.34C83.2133 138.69 83.1431 138.996 82.9583 139.257C82.7736 139.518 82.4926 139.672 82.114 139.723C81.7367 139.773 81.4206 139.713 81.1682 139.544C80.9158 139.373 80.7636 139.095 80.7116 138.706C80.6608 138.317 80.7272 137.995 80.9132 137.74C81.0993 137.485 81.3946 137.331 81.7992 137.277Z" fill="#231F20"/>
</g>
<defs>
<clipPath id="clip0_69_7282">
<rect width="148" height="149.598" fill="white"/>
</clipPath>
</defs>
</svg>
