<svg width="14" height="14" viewBox="0 0 14 14" fill="none" xmlns="http://www.w3.org/2000/svg">
<path d="M3.57532 4.91309H0.942383V13.3094H3.57532V4.91309Z" fill="white"/>
<path d="M10.6974 4.73113C10.6003 4.719 10.4972 4.71293 10.394 4.70686C8.91982 4.6462 8.08869 5.5198 7.79749 5.89593C7.71862 5.99907 7.68222 6.05973 7.68222 6.05973V4.9374H5.16455V13.3337H7.68222H7.79749C7.79749 12.4783 7.79749 11.6289 7.79749 10.7735C7.79749 10.3125 7.79749 9.85141 7.79749 9.39034C7.79749 8.82007 7.75502 8.2134 8.04016 7.69167C8.28283 7.25487 8.71962 7.03647 9.21102 7.03647C10.667 7.03647 10.6974 8.35294 10.6974 8.47427C10.6974 8.48034 10.6974 8.4864 10.6974 8.4864V13.3701H13.3303V7.89187C13.3303 6.01727 12.3778 4.91313 10.6974 4.73113Z" fill="white"/>
<path d="M2.25927 3.82714C3.1036 3.82714 3.78808 3.14267 3.78808 2.29833C3.78808 1.454 3.1036 0.769531 2.25927 0.769531C1.41493 0.769531 0.730469 1.454 0.730469 2.29833C0.730469 3.14267 1.41493 3.82714 2.25927 3.82714Z" fill="white"/>
</svg>
