<svg width="92" height="58" viewBox="0 0 92 58" fill="none" xmlns="http://www.w3.org/2000/svg">
<path d="M14.1063 0C14.1063 0 14.2922 7.93546 11.114 11.1137C7.93571 14.292 0.000255585 14.1061 0.000255585 14.1061C0.000255585 14.1061 7.93571 13.9202 11.114 17.0984C14.2922 20.2767 14.1063 28.2121 14.1063 28.2121C14.1063 28.2121 13.9204 20.2767 17.0987 17.0984C20.2769 13.9202 28.2124 14.1061 28.2124 14.1061C28.2124 14.1061 20.2769 14.292 17.0987 11.1137C13.9204 7.93546 14.1063 0 14.1063 0Z" fill="white"/>
<path d="M84.7131 44.2651C84.7131 44.2651 84.8036 48.1285 83.2563 49.6758C81.709 51.2231 77.8457 51.1326 77.8457 51.1326C77.8457 51.1326 81.709 51.0421 83.2563 52.5894C84.8036 54.1367 84.7131 58 84.7131 58C84.7131 58 84.6226 54.1367 86.1699 52.5894C87.7173 51.0421 91.5806 51.1326 91.5806 51.1326C91.5806 51.1326 87.7173 51.2231 86.1699 49.6758C84.6226 48.1285 84.7131 44.2651 84.7131 44.2651Z" fill="white"/>
</svg>
