<svg width="92" height="58" viewBox="0 0 92 58" fill="none" xmlns="http://www.w3.org/2000/svg">
<path d="M77.4742 58C77.4742 58 77.2883 50.0645 80.4666 46.8863C83.6449 43.708 91.5803 43.8939 91.5803 43.8939C91.5803 43.8939 83.6449 44.0798 80.4666 40.9016C77.2883 37.7233 77.4742 29.7879 77.4742 29.7879C77.4742 29.7879 77.6602 37.7233 74.4819 40.9016C71.3036 44.0798 63.3682 43.8939 63.3682 43.8939C63.3682 43.8939 71.3036 43.708 74.4819 46.8863C77.6602 50.0645 77.4742 58 77.4742 58Z" fill="black"/>
<path d="M6.86743 13.7348C6.86743 13.7348 6.77692 9.87153 8.32423 8.32422C9.87155 6.77691 13.7349 6.86742 13.7349 6.86742C13.7349 6.86742 9.87155 6.95793 8.32423 5.41062C6.77692 3.8633 6.86743 -1.37047e-05 6.86743 -1.37047e-05C6.86743 -1.37047e-05 6.95794 3.8633 5.41063 5.41062C3.86332 6.95793 6.0037e-07 6.86742 6.0037e-07 6.86742C6.0037e-07 6.86742 3.86332 6.77691 5.41063 8.32422C6.95794 9.87153 6.86743 13.7348 6.86743 13.7348Z" fill="black"/>
</svg>
