<svg width="175" height="241" viewBox="0 0 175 241" fill="none" xmlns="http://www.w3.org/2000/svg">
<path d="M82.7898 240.11L43.0608 217.173C40.3982 215.636 39.6432 212.813 41.1817 210.149L73.8142 153.627C73.8142 153.627 73.8211 153.615 73.8234 153.612C74.3802 152.647 74.3805 151.452 73.825 150.491C73.2716 149.531 72.2358 148.93 71.1248 148.932C71.1165 148.932 71.1094 148.931 71.0992 148.93L5.87552 148.938C2.8011 148.938 0.734619 146.872 0.737741 143.795L0.762923 97.8873C0.762792 96.3766 1.2549 95.0893 2.18183 94.1615C3.10875 93.2336 4.39795 92.7451 5.90804 92.7439L71.14 92.7353C72.2422 92.7262 73.2712 92.1298 73.8223 91.1754C74.3733 90.221 74.3771 89.0195 73.8239 88.0546C73.8211 88.0503 73.8174 88.0429 73.8157 88.0367L41.2227 31.5726C40.4687 30.2642 40.2491 28.9046 40.5872 27.6368C40.9273 26.3702 41.7981 25.3015 43.1045 24.5451L82.8456 1.57048C84.1539 0.815248 85.5131 0.594666 86.7802 0.932013C88.0461 1.27134 89.1138 2.14175 89.869 3.44813L122.496 59.9768C123.054 60.9287 124.086 61.5219 125.189 61.521C126.3 61.5196 127.333 60.9204 127.891 59.9592C127.893 59.9552 127.897 59.9493 127.899 59.9453L160.535 3.41811C161.29 2.11054 162.359 1.2384 163.626 0.898387C164.893 0.558376 166.252 0.77705 167.561 1.53252L207.29 24.4701C209.952 26.0073 210.707 28.8295 209.169 31.4943L176.61 87.8885C176.634 87.9341 176.633 87.9895 176.607 88.0351C176.05 88.9994 176.05 90.195 176.605 91.156C177.161 92.1169 178.195 92.7164 179.306 92.715C179.311 92.7153 179.319 92.7147 179.324 92.715L244.474 92.7067C245.984 92.7055 247.27 93.1969 248.197 94.1236C249.124 95.0502 249.612 96.3396 249.612 97.8503L249.586 143.754C249.584 146.83 247.517 148.899 244.442 148.899L179.195 148.907C178.097 148.918 177.072 149.517 176.524 150.465C175.977 151.414 175.971 152.601 176.511 153.561L209.126 210.069C210.663 212.732 209.907 215.557 207.242 217.096L167.502 240.068C166.194 240.823 164.835 241.044 163.568 240.707C162.302 240.367 161.234 239.497 160.479 238.19L127.873 181.698C127.873 181.698 127.861 181.683 127.857 181.675C127.3 180.713 126.265 180.116 125.157 180.116C124.057 180.116 123.061 180.684 122.487 181.631L89.8136 238.224C88.2751 240.888 85.4535 241.646 82.7909 240.108L82.7898 240.11ZM74.0986 153.744C74.0986 153.744 74.0917 153.756 74.0882 153.762L41.4454 210.301C39.9985 212.807 40.7103 215.461 43.2123 216.906L82.9413 239.843C85.4453 241.289 88.098 240.577 89.5448 238.071L122.22 181.476C122.848 180.434 123.944 179.813 125.152 179.812C126.361 179.812 127.49 180.456 128.105 181.498C128.111 181.505 128.117 181.513 128.123 181.522L160.743 238.039C161.458 239.274 162.461 240.097 163.645 240.413C164.831 240.73 166.109 240.521 167.345 239.805L207.085 216.833C209.589 215.384 210.3 212.729 208.856 210.225L176.241 153.717C175.647 152.662 175.654 151.359 176.255 150.318C176.857 149.276 177.982 148.619 179.19 148.605L244.438 148.595C247.33 148.595 249.272 146.65 249.275 143.757L249.301 97.8533C249.303 96.4258 248.842 95.213 247.977 94.3454C247.109 93.4767 245.896 93.0174 244.47 93.0195L179.299 93.0286C179.299 93.0286 179.286 93.0288 179.279 93.0274C178.064 93.0196 176.937 92.3631 176.332 91.3131C175.756 90.3109 175.725 89.0765 176.247 88.0496C176.221 88.0029 176.221 87.9443 176.248 87.8967L208.9 31.3417C210.347 28.8357 209.637 26.1825 207.133 24.7368L167.404 1.79924C166.169 1.08612 164.889 0.876297 163.704 1.19448C162.518 1.51266 161.514 2.33535 160.801 3.57149L128.155 60.1146C128.155 60.1146 128.15 60.1245 128.147 60.1285C127.534 61.1766 126.401 61.8295 125.188 61.8299C123.977 61.8294 122.845 61.181 122.231 60.1334L89.6041 3.60473C88.8898 2.36954 87.8869 1.54715 86.7027 1.23116C85.5164 0.914038 84.238 1.12302 83.0028 1.83849L43.2597 24.8119C42.0245 25.5274 41.2017 26.5313 40.885 27.7162C40.5672 28.9031 40.7752 30.1819 41.4895 31.4171L74.0888 87.898C74.0888 87.898 74.0952 87.9096 74.0969 87.9159C74.696 88.9708 74.69 90.2769 74.084 91.3265C73.478 92.3761 72.349 93.0312 71.1359 93.0399L5.90798 93.0508C4.48112 93.0497 3.26846 93.511 2.40062 94.3777C1.53278 95.2444 1.07168 96.4597 1.07278 97.8864L1.04677 143.79C1.04453 146.683 2.98606 148.627 5.87901 148.625L71.1294 148.617C71.1294 148.617 71.1479 148.617 71.155 148.618C72.3648 148.629 73.4906 149.284 74.0942 150.331C74.6986 151.381 74.7009 152.687 74.1028 153.741L74.0986 153.744Z" fill="#EC008C"/>
</svg>
