<svg width="116" height="242" viewBox="0 0 116 242" fill="none" xmlns="http://www.w3.org/2000/svg">
<path d="M26.65 2.61073L-5.00001 57.4607L-5 183.651L26.65 238.501C28.16 241.111 30.9 241.841 33.5 240.341L73.47 217.271C76.08 215.771 76.81 213.031 75.31 210.421L42.51 153.581C41.95 152.591 41.9 151.341 42.51 150.291C43.12 149.241 44.22 148.651 45.36 148.651L110.98 148.651C113.99 148.651 116 146.641 116 143.631L116 97.4807C116 94.4707 113.99 92.4607 110.98 92.4607L45.3 92.4607C44.19 92.4407 43.11 91.8607 42.51 90.8207C41.9 89.7707 41.94 88.5107 42.51 87.5307L75.31 30.6907C76.81 28.0807 76.08 25.3407 73.47 23.8407L33.5 0.770735C30.89 -0.729265 28.15 0.000730973 26.65 2.61073Z" fill="black"/>
</svg>
