<svg width="375" height="668" viewBox="0 0 375 668" fill="none" xmlns="http://www.w3.org/2000/svg">
<path d="M188.944 -89.9453L188.944 158.911C188.944 163.066 186.648 167.22 182.773 169.513C178.754 171.805 174.019 171.662 170.287 169.513L-45.4084 45.2994C-55.3106 39.5687 -65.6434 42.4341 -71.3838 52.3195L-159.069 203.61C-164.809 213.496 -161.939 223.811 -152.037 229.542L63.6593 353.755C67.3906 355.904 69.8302 359.915 69.8302 364.5C69.8302 369.085 67.3906 373.096 63.6593 375.245L-152.036 499.458C-161.939 505.189 -164.665 515.504 -159.068 525.39L-71.5273 676.824C-65.7869 686.709 -55.4541 689.431 -45.5519 683.844L169.857 559.774C173.588 557.625 178.324 557.482 182.342 559.774C186.361 562.066 188.513 566.221 188.513 570.519L188.8 570.519L188.8 818.945C188.8 830.407 196.406 838 207.887 838L382.969 838C394.45 838 402.056 830.407 402.056 818.945L402.056 570.376C402.056 566.078 404.352 561.923 408.371 559.631C412.389 557.338 417.125 557.482 420.856 559.631L636.552 683.844C646.454 689.575 656.787 686.709 662.527 676.824L750.069 525.39C755.809 515.504 752.939 505.189 743.037 499.458L527.484 375.245C523.753 373.096 521.17 369.085 521.17 364.5C521.17 359.915 523.609 355.904 527.341 353.755L742.893 229.542C752.795 223.811 755.522 213.496 749.925 203.61L662.384 52.1763C656.643 42.2908 646.311 39.5687 636.408 45.1562L420.713 169.369C416.981 171.518 412.246 171.662 408.227 169.369C404.209 167.077 402.056 162.922 402.056 158.624L402.056 -89.9453C402.056 -101.407 394.45 -109 382.969 -109L207.887 -109C196.406 -109 188.8 -101.407 188.8 -89.9453L188.944 -89.9453ZM188.657 549.029L188.944 549.029L188.944 549.172L188.657 549.172L188.657 549.029Z" fill="#DA007E"/>
</svg>
