<svg width="102" height="105" viewBox="0 0 102 105" fill="none" xmlns="http://www.w3.org/2000/svg">
<path d="M28.97 98.6118C29.2179 96.8102 29.8983 95.6256 31.0091 95.057C32.0354 94.5296 33.3656 94.3788 35.0006 94.6045L38.7126 95.115L38.6778 95.364L37.8117 95.2448L36.6166 103.927L37.4826 104.046L37.4478 104.295L33.3951 103.737C31.7169 103.506 30.5048 102.989 29.7601 102.188C29.0154 101.386 28.7517 100.193 28.97 98.6108V98.6118ZM35.2548 94.8925L34.7569 94.8239C33.874 94.7026 33.1989 94.9283 32.7327 95.5011C32.2664 96.0739 31.932 97.095 31.7295 98.5633L31.6251 99.3239C31.354 101.291 31.5671 102.527 32.2633 103.034C32.5955 103.275 33.0892 103.442 33.7453 103.532L34.0597 103.575L35.2548 94.8925Z" fill="#EC008C"/>
<path d="M25.199 99.9779C25.6494 100.106 25.9374 100.31 26.064 100.594C26.1905 100.878 26.2053 101.189 26.1093 101.528C26.0133 101.868 25.8298 102.119 25.5597 102.281C25.2897 102.443 24.9416 102.463 24.5165 102.343C24.0925 102.223 23.7971 102.032 23.6325 101.77C23.468 101.508 23.4385 101.192 23.5429 100.823C23.6473 100.454 23.8372 100.188 24.1114 100.027C24.3868 99.8671 24.7486 99.8502 25.199 99.9779ZM27.372 99.6435L24.2507 98.7606L25.9015 92.9262L25.1884 92.7248L25.2538 92.4959L29.0376 93.5665L28.9732 93.7954L28.2728 93.5971L26.6874 99.2026L27.4395 99.4156L27.3741 99.6445L27.372 99.6435Z" fill="#EC008C"/>
<path d="M17.409 96.9515L16.9807 97.0201C16.8288 97.2532 16.8752 97.4199 17.121 97.5201C17.4723 97.6625 17.7581 97.4642 17.9775 96.9252C18.064 96.7121 18.1347 96.4557 18.1906 96.1541C17.7391 95.4842 17.6442 94.825 17.909 94.1752C18.1737 93.5254 18.6031 93.1119 19.199 92.9347C19.795 92.7575 20.4775 92.825 21.2454 93.1372C21.564 93.267 21.8826 93.4336 22.199 93.6393C22.6515 93.556 22.9015 93.4579 22.948 93.3429C22.9944 93.2279 22.756 93.0655 22.2328 92.8524L20.9817 92.344C19.1252 91.5898 18.468 90.5465 19.0092 89.2143C19.3014 88.4949 19.813 88.0381 20.544 87.844C21.275 87.651 22.2338 87.7944 23.4195 88.2755C25.4395 89.0961 26.2718 89.9432 25.9163 90.8187C25.7232 91.2934 25.276 91.4927 24.5735 91.4168L23.9722 90.787C24.1336 90.5761 24.2581 90.3651 24.3446 90.152C24.6304 89.4484 24.2496 88.8851 23.2032 88.46C22.565 88.2006 22.026 88.1204 21.5872 88.2185C21.1473 88.3166 20.8562 88.5413 20.7138 88.8925C20.5714 89.2438 20.5798 89.5212 20.7402 89.7248C20.9005 89.9284 21.2919 90.1562 21.9132 90.4083L23.103 90.8915C23.7655 91.1604 24.1948 91.4632 24.391 91.8007C24.5872 92.1383 24.6199 92.4674 24.4891 92.7912C24.3583 93.114 24.1463 93.3429 23.8541 93.4758C23.5619 93.6098 23.0893 93.73 22.4364 93.8355C23.276 94.4906 23.4975 95.3049 23.102 96.2775C22.853 96.8904 22.4311 97.2954 21.8372 97.4927C21.2433 97.6889 20.5039 97.6087 19.621 97.25C19.0893 97.0338 18.6769 96.7479 18.3837 96.3904C18.3436 96.6309 18.2866 96.8408 18.2128 97.0212C18.0271 97.479 17.7697 97.7606 17.4417 97.865C17.1136 97.9695 16.7982 97.961 16.4955 97.8376C16.1927 97.7152 15.9818 97.5359 15.8626 97.3017C15.7434 97.0676 15.7402 96.8112 15.8531 96.5338C15.966 96.2553 16.1231 96.0792 16.3256 96.0043C16.5271 95.9294 16.7328 95.9336 16.9417 96.0191C17.1505 96.1045 17.2993 96.229 17.39 96.3935C17.4796 96.5591 17.4881 96.7448 17.4132 96.9526L17.409 96.9515ZM20.2011 100.843L19.9902 100.8C20.0081 100.426 19.9248 100.135 19.7381 99.9251C19.5514 99.7163 19.2233 99.5159 18.7528 99.3249C18.2824 99.134 17.9132 99.0464 17.6453 99.0612C17.3773 99.076 17.1242 99.2353 16.8868 99.5391L16.7181 99.4272C17.4628 98.0148 18.3425 97.5148 19.3562 97.9262C19.9775 98.1783 20.3193 98.5697 20.3805 99.0992C20.4406 99.5612 20.3805 100.142 20.2011 100.841V100.843ZM20.9406 95.7132L21.2096 95.0507C21.4321 94.5032 21.5366 94.1119 21.5218 93.8777C21.5081 93.6435 21.4047 93.4874 21.2117 93.4094C21.0197 93.3313 20.8414 93.3714 20.6779 93.5286C20.5144 93.6857 20.3108 94.0634 20.0682 94.6604L19.8246 95.2617C19.5651 95.8999 19.4364 96.3355 19.4364 96.5686C19.4364 96.8018 19.5334 96.9579 19.7254 97.0359C19.9174 97.114 20.1052 97.0686 20.2876 96.8998C20.4701 96.7311 20.6885 96.3355 20.9406 95.7142V95.7132Z" fill="#EC008C"/>
<path d="M17.7623 90.2322C17.9701 91.0233 17.8183 91.8735 17.3045 92.7849C16.7908 93.6963 16.12 94.2374 15.2898 94.4072C14.4596 94.5781 13.6136 94.421 12.7518 93.9357C11.0061 92.9526 10.6611 91.6045 11.7181 89.8894L14.9712 91.7206L15.2244 91.2701C15.6484 90.5159 15.8731 89.8936 15.8974 89.401C15.9216 88.9083 15.6959 88.5275 15.2181 88.2586C14.3257 87.7565 13.4734 87.9041 12.659 88.7016L12.4713 88.5497C12.9291 88.0782 13.4354 87.7955 13.9892 87.7027C14.543 87.6098 15.2012 87.7775 15.9617 88.2058C16.9533 88.7649 17.5535 89.4389 17.7623 90.2301V90.2322ZM14.8299 91.9463L13.6421 91.2775L13.3236 91.8429C12.9723 92.4663 12.7698 92.9115 12.716 93.1794C12.6611 93.4473 12.7434 93.6435 12.9628 93.7669C13.1822 93.8904 13.4122 93.8598 13.6516 93.6762C13.8911 93.4927 14.179 93.1045 14.5124 92.5127L14.8309 91.9473L14.8299 91.9463Z" fill="#EC008C"/>
<path d="M5.9154 88.7628C6.177 88.959 6.53354 88.9611 6.98501 88.7702C7.43649 88.5792 7.83732 88.2512 8.18648 87.7849L10.3141 84.9464L9.56199 84.3831L9.7044 84.1921L13.0092 86.67L12.8658 86.8609L12.2835 86.4242L8.78985 91.0855L9.37212 91.5223L9.22972 91.7132L6.677 89.7997L7.43965 88.7828C7.07784 89.074 6.69388 89.2185 6.28671 89.2174C5.87954 89.2153 5.51034 89.0908 5.17807 88.8419C4.84579 88.593 4.64643 88.2965 4.57786 87.9537C4.51035 87.6109 4.60423 87.267 4.86056 86.9252C5.11689 86.5824 5.3922 86.3778 5.68545 86.3103C5.97869 86.2428 6.28565 86.3303 6.60738 86.5708C6.92911 86.8113 7.08628 87.0951 7.07889 87.421C7.07257 87.747 6.87214 88.0539 6.47763 88.344L6.09578 88.0582C5.64958 88.286 5.5884 88.5223 5.91329 88.7649L5.9154 88.7628Z" fill="#EC008C"/>
<path d="M1.18865 90.0697L-1.19319 87.8683L5.38376 80.7513L4.83946 80.2481L5.00085 80.073L7.88796 82.7417L7.72657 82.9168L7.19176 82.4221L0.776205 89.3641L1.35004 89.8946L1.18865 90.0697Z" fill="#EC008C"/>
<path d="M3.58947 79.7228C3.52091 80.5371 3.09264 81.2882 2.30467 81.9759C1.51671 82.6637 0.702368 82.9485 -0.137287 82.8314C-0.976942 82.7143 -1.72166 82.2839 -2.37144 81.5382C-3.68789 80.0276 -3.56236 78.6416 -1.99276 77.3789L0.460808 80.1932L0.850046 79.8536C1.50194 79.285 1.92177 78.7724 2.10953 78.3167C2.29729 77.8599 2.21079 77.4264 1.85109 77.0139C1.1781 76.2429 0.324734 76.0962 -0.709013 76.5762L-0.835592 76.3705C-0.245935 76.0793 0.324734 75.9823 0.878527 76.0794C1.43126 76.1764 1.9956 76.5551 2.56944 77.2133C3.31732 78.072 3.65804 78.9074 3.58947 79.7228ZM0.251949 80.3578L-0.644667 79.3304L-1.13306 79.7565C-1.67208 80.2259 -2.01174 80.5783 -2.15309 80.8124C-2.29444 81.0466 -2.28178 81.2586 -2.11723 81.4485C-1.95162 81.6384 -1.72588 81.6869 -1.43791 81.5941C-1.14994 81.5012 -0.750151 81.2312 -0.237497 80.785L0.250895 80.3588L0.251949 80.3578Z" fill="#EC008C"/>
<path d="M-7.08659 74.3768C-6.90622 74.649 -6.57078 74.7703 -6.08133 74.7418C-5.59188 74.7133 -5.10454 74.5372 -4.61932 74.2144L-1.6647 72.2492L-2.18474 71.4665L-1.98643 71.3347L0.300472 74.7735L0.102161 74.9053L-0.300789 74.2988L-5.15096 77.5245L-4.74801 78.131L-4.94632 78.2629L-6.71318 75.6057L-5.65517 74.9021C-6.09399 75.0562 -6.50432 75.0635 -6.88723 74.9264C-7.27014 74.7893 -7.57604 74.5477 -7.806 74.2017C-8.03595 73.8568 -8.12561 73.5108 -8.07498 73.1638C-8.02435 72.8178 -7.82076 72.5256 -7.46423 72.2882C-7.10769 72.0509 -6.77963 71.9496 -6.48217 71.9845C-6.18365 72.0193 -5.9231 72.2039 -5.70053 72.5382C-5.47796 72.8726 -5.42416 73.1922 -5.54019 73.4971C-5.65517 73.8019 -5.94736 74.0245 -6.41466 74.1659L-6.67837 73.7692C-7.1752 73.8346 -7.31128 74.0372 -7.08659 74.3747V74.3768Z" fill="#EC008C"/>
<path d="M-10.576 70.8653C-10.3598 71.2798 -10.3112 71.63 -10.4304 71.9169C-10.5496 72.2028 -10.7659 72.4285 -11.0792 72.591C-11.3925 72.7545 -11.7005 72.7935 -12.0043 72.7081C-12.3081 72.6226 -12.5612 72.3842 -12.7659 71.9929C-12.9705 71.6015 -13.0327 71.2566 -12.9557 70.957C-12.8777 70.6575 -12.6688 70.4191 -12.3281 70.2419C-11.9874 70.0646 -11.6646 70.0203 -11.3598 70.11C-11.0539 70.1997 -10.7933 70.4518 -10.5771 70.8663L-10.576 70.8653ZM-8.8408 72.2155L-10.3408 69.34L-4.9653 66.5351L-5.30813 65.878L-5.09716 65.7683L-3.27861 69.2545L-3.48958 69.3642L-3.82607 68.7187L-8.99059 71.4138L-8.62877 72.1058L-8.83974 72.2155H-8.8408Z" fill="#EC008C"/>
<path d="M-10.7374 68.1807L-10.9589 68.2682L-12.3735 64.6997L-12.152 64.6122L-11.8882 65.2767L-8.33447 62.3158L-12.9863 62.5077L-12.6593 63.3326L-12.8808 63.4202L-13.5686 61.685L-13.3471 61.5974L-13.1034 62.2124L-5.55707 61.8843C-4.67839 61.8495 -4.01911 61.9392 -3.57819 62.1533C-3.13726 62.3675 -2.82081 62.7166 -2.62883 63.2008C-2.43684 63.685 -2.39676 64.11 -2.50752 64.4771C-2.61828 64.8442 -2.84612 65.0953 -3.19106 65.2324C-3.53599 65.3695 -3.83451 65.3832 -4.08556 65.2735C-4.33767 65.1649 -4.52227 64.9624 -4.63936 64.667C-4.9094 63.9856 -4.76172 63.5331 -4.19527 63.3084C-4.07185 63.2598 -3.91468 63.2261 -3.7227 63.2071L-3.55181 63.6375C-3.33663 63.628 -3.1784 63.5742 -3.07397 63.4771C-2.9706 63.379 -2.95266 63.244 -3.02123 63.0721C-3.15414 62.7356 -3.43895 62.5025 -3.87565 62.3717C-4.31236 62.2409 -4.91784 62.1913 -5.69315 62.2229L-6.56339 62.2546L-6.13407 63.3379L-10.9368 67.6765L-10.7364 68.1807H-10.7374Z" fill="#EC008C"/>
<path d="M-17.135 62.1691L-18 59.0436L-8.66042 56.4593L-8.85873 55.7451L-8.62877 55.6819L-7.58026 59.4708L-7.81022 59.5341L-8.00431 58.8327L-17.1139 61.3537L-16.9061 62.1069L-17.1361 62.1702L-17.135 62.1691Z" fill="#EC008C"/>
<path d="M-9.64248 54.6407C-10.1309 55.2968 -10.8904 55.7082 -11.923 55.8759C-12.9557 56.0437 -13.7975 55.8559 -14.4483 55.3137C-15.0992 54.7715 -15.5042 54.012 -15.6635 53.0363C-15.9842 51.0585 -15.1456 49.9477 -13.1467 49.7041L-12.5486 53.3886L-12.0391 53.3064C-11.1857 53.1682 -10.5581 52.954 -10.1583 52.665C-9.75851 52.377 -9.60239 51.9625 -9.68995 51.4224C-9.8545 50.4119 -10.5022 49.838 -11.633 49.6998V49.4583C-10.9779 49.5216 -10.441 49.741 -10.0233 50.1154C-9.6045 50.4899 -9.32497 51.1091 -9.18573 51.9709C-9.00324 53.0943 -9.1562 53.9846 -9.64353 54.6407H-9.64248ZM-12.8112 53.4192L-13.0296 52.0732L-13.6699 52.1777C-14.3756 52.2926 -14.8502 52.4118 -15.0939 52.5363C-15.3376 52.6608 -15.4388 52.8475 -15.3988 53.0954C-15.3587 53.3433 -15.192 53.5047 -14.8977 53.5774C-14.6034 53.6502 -14.1224 53.6323 -13.4515 53.5236L-12.8112 53.4192Z" fill="#EC008C"/>
<path d="M-13.0475 42.933L-13.038 42.5491L-14.057 42.5237C-14.8956 42.5037 -15.4589 42.5364 -15.7479 42.6218C-16.0369 42.7073 -16.1846 42.8824 -16.1909 43.1472C-16.1952 43.3064 -16.1561 43.451 -16.076 43.5807C-15.9947 43.7104 -15.8819 43.778 -15.7363 43.7811C-15.5907 43.7843 -15.442 43.7621 -15.2912 43.7126L-15.2827 43.3813C-15.096 43.3149 -14.8724 43.2853 -14.6118 43.2917C-14.3513 43.298 -14.1287 43.414 -13.9452 43.6387C-13.7606 43.8644 -13.673 44.144 -13.6815 44.4794C-13.6994 45.2379 -14.0749 45.6092 -14.808 45.5912C-15.8935 45.5649 -16.4135 44.6292 -16.3682 42.7853C-16.3428 41.7358 -16.1466 41.0143 -15.7796 40.6208C-15.4125 40.2284 -14.7521 40.0428 -13.7996 40.066L-11.1129 40.1314C-10.6541 40.143 -10.422 40.0206 -10.4157 39.7643C-10.4083 39.4647 -10.8587 39.2769 -11.7659 39.202L-11.7479 39.0037C-10.9726 39.0575 -10.442 39.2168 -10.1572 39.4795C-9.87243 39.7421 -9.73741 40.1651 -9.75113 40.7474C-9.7775 41.8065 -10.1182 42.4067 -10.7754 42.5501C-10.4431 42.6735 -10.2005 42.8507 -10.0465 43.0839C-9.89353 43.317 -9.8218 43.6545 -9.83235 44.0955C-9.86399 45.4014 -10.4136 46.0416 -11.4811 46.0153C-12.1076 46.0005 -12.5317 45.74 -12.7532 45.2357C-12.9747 44.7315 -13.0728 43.9636 -13.0475 42.9309V42.933ZM-10.5444 43.451C-10.4104 43.4056 -10.3429 43.3149 -10.3387 43.1777C-10.3355 43.0406 -10.4442 42.9098 -10.6667 42.7853C-10.8893 42.6609 -11.1984 42.5934 -11.595 42.5839L-12.826 42.5543L-12.8281 42.6472C-12.8418 43.1946 -12.4463 43.4773 -11.6435 43.4974L-11.4315 43.5026C-10.9726 43.5142 -10.6762 43.4963 -10.5433 43.451H-10.5444Z" fill="#EC008C"/>
<path d="M-15.8903 38.8835L-16.1255 38.8487L-15.5591 35.0512L-15.3239 35.086L-15.4293 35.7928L-10.8693 35.0143L-14.9895 32.8466L-15.1203 33.7242L-15.3555 33.6894L-15.0802 31.8435L-14.845 31.8783L-14.9431 32.5333L-8.25114 36.0343C-7.47372 36.4447 -6.94735 36.854 -6.67415 37.2601C-6.39989 37.6672 -6.30179 38.1282 -6.37879 38.643C-6.4558 39.1577 -6.63406 39.5459 -6.9136 39.8075C-7.19313 40.0691 -7.51697 40.1725 -7.883 40.1176C-8.24903 40.0628 -8.51485 39.9257 -8.67835 39.7041C-8.84185 39.4837 -8.89987 39.2158 -8.85345 38.9014C-8.74586 38.1767 -8.39038 37.8592 -7.78806 37.9489C-7.65726 37.9689 -7.50431 38.0185 -7.32815 38.0976L-7.39672 38.5554C-7.20685 38.6556 -7.04229 38.6883 -6.90305 38.6556C-6.76381 38.6229 -6.68153 38.5143 -6.65411 38.3318C-6.60031 37.9742 -6.73006 37.6293 -7.04229 37.297C-7.35452 36.9647 -7.85346 36.6187 -8.54017 36.2569L-9.30915 35.8476L-9.48109 36.9995L-15.8123 38.3444L-15.8924 38.8814L-15.8903 38.8835Z" fill="#EC008C"/>
<path d="M-14.8967 30.9278L-13.9642 27.8762L-12.7996 28.2317C-13.1467 27.9785 -13.3956 27.6758 -13.5465 27.3245C-13.6973 26.9743 -13.6867 26.5154 -13.5138 25.95C-13.114 24.642 -12.2089 24.2032 -10.7996 24.6336L-6.98849 25.7981L-6.77225 25.0893L-6.5444 25.1589L-7.63933 28.7422L-7.86718 28.6726L-7.70895 28.1536L-11.8239 26.8962C-12.3302 26.7412 -12.6678 26.6758 -12.8365 26.6979C-13.0043 26.7201 -13.1161 26.8203 -13.1699 26.9975C-13.2522 27.2675 -13.1477 27.5597 -12.8566 27.8751C-12.5654 28.1905 -12.1667 28.4247 -11.6604 28.5798L-8.1657 29.6473L-7.99903 29.103L-7.77119 29.1726L-8.87033 32.7685L-9.09818 32.6989L-8.8851 32.0027L-14.4557 30.3002L-14.6688 30.9964L-14.8967 30.9268V30.9278Z" fill="#EC008C"/>
<path d="M-12.1488 22.5366L-10.8313 19.5725L-5.29125 22.0355L-4.99062 21.3583L-4.77332 21.4554L-6.37036 25.0481L-6.58765 24.9511L-6.2923 24.2855L-11.615 21.9195L-11.9325 22.6336L-12.1498 22.5366H-12.1488Z" fill="#EC008C"/>
<path d="M-4.38514 14.5567L-4.17417 14.236L-5.02649 13.6769C-5.7269 13.217 -6.22268 12.947 -6.51381 12.8668C-6.8039 12.7867 -7.02225 12.8573 -7.16782 13.0789C-7.25537 13.2118 -7.29862 13.3552 -7.29862 13.5071C-7.29862 13.6601 -7.23849 13.7761 -7.11613 13.8563C-6.99377 13.9364 -6.85664 13.9955 -6.70158 14.0335L-6.52014 13.7571C-6.32711 13.8004 -6.12036 13.8932 -5.90306 14.0356C-5.68576 14.178 -5.55813 14.3942 -5.52015 14.6833C-5.48218 14.9723 -5.55602 15.256 -5.73956 15.5366C-6.15622 16.1717 -6.67099 16.2877 -7.2828 15.8847C-8.18996 15.2887 -8.13827 14.2202 -7.12562 12.678C-6.54968 11.8004 -6.00116 11.2919 -5.48218 11.1517C-4.9632 11.0124 -4.30497 11.2044 -3.50857 11.7276L-1.26175 13.2023C-0.877789 13.4544 -0.616188 13.4734 -0.475893 13.2592C-0.311338 13.0082 -0.594034 12.6116 -1.32504 12.0683L-1.20479 11.9101C-0.575048 12.3658 -0.209017 12.7803 -0.105642 13.1548C-0.00226784 13.5282 -0.110916 13.9586 -0.430534 14.4459C-1.01175 15.3309 -1.61934 15.6611 -2.25225 15.4354C-2.03495 15.716 -1.92314 15.9944 -1.91575 16.274C-1.90943 16.5535 -2.02651 16.8773 -2.26913 17.2455C-2.98642 18.3372 -3.79127 18.5904 -4.68366 18.0039C-5.20686 17.66 -5.43049 17.2159 -5.35243 16.6706C-5.27437 16.1252 -4.95159 15.4217 -4.38514 14.5577V14.5567ZM-2.53389 16.3193C-2.39676 16.352 -2.29022 16.3109 -2.21533 16.1959C-2.14044 16.082 -2.16364 15.9132 -2.28706 15.6896C-2.40942 15.466 -2.63727 15.2455 -2.96954 15.0282L-3.99907 14.352L-4.0497 14.4291C-4.35033 14.8869 -4.16468 15.3352 -3.49274 15.7761L-3.31553 15.8921C-2.93157 16.1442 -2.67102 16.2856 -2.53389 16.3183V16.3193Z" fill="#EC008C"/>
<path d="M3.41964 9.52297L2.63062 9.01559C2.95868 9.70863 2.81838 10.3985 2.20868 11.0841C1.70447 11.6516 1.10848 11.9101 0.420723 11.8594C-0.267035 11.8088 -1.01597 11.4238 -1.82715 10.7023C-3.46954 9.24239 -3.71004 7.85948 -2.54866 6.55359C-2.03284 5.97342 -1.53074 5.73398 -1.0434 5.83735L-3.96215 3.24244L-4.49907 3.84581L-4.67733 3.68758L-2.47799 1.21397L4.76457 7.65274L5.196 7.16751L5.37427 7.32574L3.42175 9.52192L3.41964 9.52297ZM1.64329 10.1759C1.93548 10.3057 2.16754 10.273 2.34054 10.0789C2.51353 9.88478 2.57788 9.64006 2.53146 9.34576C2.4861 9.05146 2.29518 8.75505 1.95868 8.45547L-0.198469 6.53777C-0.482222 6.28566 -0.772305 6.12743 -1.06977 6.06414C-1.36724 6.00085 -1.61301 6.0768 -1.80605 6.29515C-1.99909 6.51245 -1.98643 6.78988 -1.76597 7.12742C-1.54656 7.46497 -1.07294 7.95548 -0.348257 8.60104L0.166506 9.05884C0.859537 9.67487 1.35109 10.0472 1.64329 10.177V10.1759Z" fill="#EC008C"/>
<path d="M6.02405 2.70552L6.31835 2.45869L5.66224 1.67811C5.12322 1.03571 4.72554 0.634865 4.47027 0.474529C4.215 0.314194 3.98609 0.319466 3.78251 0.490351C3.6612 0.59267 3.57787 0.717144 3.53357 0.863768C3.48926 1.01039 3.51458 1.13908 3.60846 1.25089C3.70234 1.36271 3.81732 1.4587 3.95445 1.53887L4.20761 1.32579C4.38061 1.42283 4.55149 1.57051 4.71815 1.76988C4.88588 1.96924 4.946 2.21291 4.89853 2.49983C4.85212 2.78675 4.70022 3.03885 4.44284 3.25404C3.86162 3.74243 3.33526 3.70551 2.8648 3.14539C2.16649 2.31417 2.52303 1.30575 3.93652 0.119047C4.74031 -0.556053 5.41119 -0.886219 5.94916 -0.87145C6.48607 -0.855627 7.06202 -0.483269 7.67488 0.246683L9.40377 2.30468C9.69913 2.65594 9.9449 2.74982 10.14 2.58527C10.37 2.39223 10.2128 1.93021 9.66853 1.20026L9.82887 1.08317C10.3014 1.70026 10.5335 2.20342 10.5251 2.59054C10.5166 2.97873 10.2888 3.35952 9.84258 3.73399C9.03141 4.41542 8.35525 4.55677 7.81306 4.1591C7.9407 4.49032 7.96813 4.78989 7.89429 5.05888C7.82045 5.32786 7.61475 5.60423 7.2772 5.88798C6.27721 6.72764 5.43334 6.73924 4.74664 5.92174C4.34369 5.44178 4.25824 4.95234 4.48925 4.45234C4.72026 3.95234 5.23186 3.37113 6.02194 2.70658L6.02405 2.70552ZM7.29197 4.92491C7.41434 4.99559 7.52826 4.98609 7.63269 4.89854C7.73712 4.81099 7.76349 4.64221 7.70969 4.39327C7.65589 4.14433 7.50188 3.86796 7.24661 3.56416L6.45443 2.62113L6.38375 2.68021C5.96498 3.03252 6.0135 3.51564 6.53038 4.13062L6.66645 4.29306C6.96181 4.64432 7.17066 4.85529 7.29303 4.92491H7.29197Z" fill="#EC008C"/>
<path d="M14.9459 0.123268L14.3352 -0.588753C14.4501 0.16968 14.1179 0.789928 13.3362 1.27199C12.6907 1.67072 12.0451 1.74667 11.4016 1.50089C10.7571 1.25511 10.1506 0.670729 9.58098 -0.253313C8.42698 -2.12355 8.59365 -3.51805 10.081 -4.43471C10.7424 -4.84293 11.2909 -4.92732 11.7286 -4.68893L9.67803 -8.01274L8.99027 -7.58869L8.86474 -7.79122L11.6812 -9.52855L16.7697 -1.28073L17.3214 -1.62144L17.4469 -1.41891L14.9459 0.124321V0.123268ZM13.0577 0.238245C13.3004 0.446049 13.5324 0.481913 13.7539 0.345839C13.9755 0.209764 14.1063 -0.00647736 14.1474 -0.301834C14.1885 -0.596136 14.0904 -0.935795 13.8542 -1.3187L12.3383 -3.77438C12.139 -4.09716 11.9059 -4.33239 11.639 -4.47901C11.3721 -4.62564 11.1147 -4.62247 10.8668 -4.46952C10.6189 -4.31657 10.5514 -4.04653 10.6654 -3.66045C10.7793 -3.27438 11.0905 -2.66785 11.601 -1.84191L11.9628 -1.25647C12.4491 -0.467445 12.8141 0.0304413 13.0567 0.2393L13.0577 0.238245Z" fill="#EC008C"/>
<path d="M19.4005 -5.65622L19.7528 -5.80812L19.3499 -6.74482C19.0187 -7.51485 18.7539 -8.01379 18.5556 -8.24058C18.3573 -8.46737 18.1368 -8.52855 17.8931 -8.42413C17.7476 -8.36189 17.6315 -8.2659 17.5472 -8.13826C17.4628 -8.01063 17.4491 -7.87983 17.5071 -7.74586C17.564 -7.6119 17.6474 -7.48637 17.755 -7.36928L18.0588 -7.50008C18.1969 -7.35768 18.3172 -7.16675 18.4206 -6.9273C18.5229 -6.68785 18.5113 -6.43786 18.3836 -6.17626C18.256 -5.91465 18.0377 -5.7174 17.7296 -5.58554C17.0324 -5.28597 16.5387 -5.47267 16.2497 -6.14566C15.8214 -7.14249 16.4533 -8.00535 18.1484 -8.73425C19.1136 -9.1488 19.8509 -9.27116 20.3604 -9.10239C20.871 -8.93256 21.314 -8.41041 21.6906 -7.53384L22.7518 -5.06445C22.9332 -4.64251 23.141 -4.48218 23.3762 -4.58344C23.6515 -4.70158 23.6347 -5.18892 23.3245 -6.04545L23.5123 -6.11191C23.7866 -5.38407 23.8636 -4.83661 23.7433 -4.46741C23.6231 -4.09822 23.2961 -3.79969 22.7602 -3.56974C21.7876 -3.15097 21.0988 -3.21109 20.6948 -3.74801C20.7222 -3.39463 20.6611 -3.09928 20.5134 -2.86299C20.3646 -2.62671 20.0883 -2.42101 19.6832 -2.24696C18.4828 -1.73115 17.6727 -1.96321 17.2507 -2.94422C17.0029 -3.52016 17.0619 -4.01383 17.428 -4.42522C17.794 -4.8366 18.4512 -5.24694 19.3995 -5.65516L19.4005 -5.65622ZM19.9754 -3.16468C20.0725 -3.06236 20.1832 -3.0381 20.3098 -3.09189C20.4353 -3.14569 20.5081 -3.2997 20.5292 -3.55392C20.5492 -3.80813 20.4817 -4.1172 20.3246 -4.48218L19.8383 -5.61297L19.7528 -5.57605C19.2497 -5.35981 19.1579 -4.88302 19.4744 -4.14463L19.5577 -3.95054C19.7391 -3.5286 19.8784 -3.267 19.9754 -3.16468Z" fill="#EC008C"/>
<path d="M22.7612 -10.5117L25.8488 -11.3176L26.1568 -10.1393C26.1905 -10.5676 26.3182 -10.9378 26.5376 -11.2511C26.757 -11.5633 27.1526 -11.7943 27.7253 -11.9441C29.0492 -12.2891 29.8973 -11.749 30.2686 -10.3228L31.2749 -6.46739L31.9922 -6.6541L32.0523 -6.42309L28.4268 -5.47689L28.3667 -5.7079L28.892 -5.84503L27.8055 -10.0085C27.6715 -10.5212 27.5513 -10.8429 27.4437 -10.9747C27.3361 -11.1066 27.1926 -11.1488 27.0133 -11.1024C26.7401 -11.0306 26.546 -10.7891 26.43 -10.3756C26.314 -9.96209 26.3234 -9.49901 26.4574 -8.98741L27.3804 -5.45158L27.931 -5.59504L27.9912 -5.36403L24.353 -4.41467L24.2929 -4.64568L24.9975 -4.82922L23.5271 -10.4652L22.8224 -10.2817L22.7623 -10.5127L22.7612 -10.5117Z" fill="#EC008C"/>
<path d="M35.5945 -7.54228C34.9985 -8.07392 34.6715 -8.86716 34.6114 -9.91989C34.5523 -10.9726 34.8076 -11.8007 35.3793 -12.403C35.951 -13.0053 36.7833 -13.3376 37.8761 -13.3988C38.9689 -13.4599 39.798 -13.2437 40.3655 -12.75C40.933 -12.2564 41.2463 -11.4716 41.3075 -10.3967C41.4341 -8.14987 40.3782 -6.96317 38.1398 -6.83659C37.0385 -6.77435 36.1894 -7.00958 35.5945 -7.54122V-7.54228ZM38.8054 -9.61926L38.7421 -10.7427C38.6936 -11.5971 38.6124 -12.2184 38.4974 -12.6055C38.3824 -12.9927 38.1577 -13.1762 37.8233 -13.1572C37.6293 -13.1467 37.4763 -13.0823 37.3634 -12.9652C37.2506 -12.8481 37.1746 -12.6604 37.1366 -12.4019C37.0797 -12.0011 37.0744 -11.3946 37.1198 -10.5844L37.1778 -9.55386C37.2316 -8.5929 37.2928 -8.01801 37.3613 -7.82708C37.4299 -7.63616 37.4974 -7.4811 37.567 -7.36084C37.6757 -7.15515 37.8708 -7.06021 38.1535 -7.07604C38.4974 -7.09502 38.7105 -7.30599 38.7938 -7.70894C38.8571 -7.99481 38.8613 -8.63193 38.8054 -9.61926Z" fill="#EC008C"/>
<path d="M42.3623 -17L45.6007 -16.826L45.0807 -7.14882L45.8212 -7.10874L45.8085 -6.87034L41.8824 -7.08131L41.895 -7.31971L42.6218 -7.28067L43.1292 -16.7194L42.3497 -16.7616L42.3623 -17Z" fill="#EC008C"/>
<path d="M47.3317 -13.3028L50.453 -12.6435L50.2009 -11.4515C50.6713 -12.2722 51.3928 -12.5802 52.3643 -12.3745C53.3359 -12.1688 53.8264 -11.5781 53.8369 -10.6024C54.3359 -11.4716 55.069 -11.8038 56.0363 -11.5992C57.3052 -11.3313 57.7884 -10.4758 57.4835 -9.03383L56.6597 -5.13513L57.3854 -4.98217L57.3358 -4.74905L53.7483 -5.50749L53.7979 -5.74061L54.2515 -5.64461L55.1407 -9.85449C55.2789 -10.5106 55.3042 -10.9072 55.2156 -11.0433C55.1745 -11.1055 55.1112 -11.1467 55.0247 -11.1646C54.7736 -11.2174 54.5183 -11.096 54.2578 -10.7986C53.9962 -10.5022 53.8116 -10.095 53.7019 -9.57601L52.9297 -5.92309L53.396 -5.82499L53.3464 -5.59187L50.0173 -6.29545L50.0669 -6.52857L50.5205 -6.43258L51.4097 -10.6425C51.5479 -11.2986 51.5732 -11.6952 51.4846 -11.8313C51.4435 -11.8946 51.3802 -11.9346 51.2937 -11.9526C51.0521 -12.0032 50.7947 -11.8661 50.5237 -11.5401C50.2515 -11.2142 50.0616 -10.7965 49.954 -10.287L49.1988 -6.71212L49.665 -6.61402L49.6154 -6.38089L46.0279 -7.13933L46.0775 -7.37245L46.7895 -7.22161L47.9941 -12.9209L47.2821 -13.0718L47.3317 -13.3049V-13.3028Z" fill="#EC008C"/>
<path d="M61.4687 -6.18047L61.8231 -6.03385L62.2134 -6.97583C62.5341 -7.75008 62.7071 -8.28805 62.7314 -8.58868C62.7556 -8.88931 62.6459 -9.08973 62.4012 -9.191C62.2546 -9.25218 62.1058 -9.268 61.956 -9.23952C61.8052 -9.21104 61.7029 -9.12982 61.647 -8.9948C61.5911 -8.85978 61.5594 -8.71315 61.5499 -8.55493L61.8558 -8.42834C61.8495 -8.23003 61.7968 -8.01063 61.6976 -7.77012C61.5974 -7.52962 61.4096 -7.36401 61.1333 -7.27329C60.8569 -7.18258 60.5637 -7.20156 60.2535 -7.33025C59.5521 -7.62139 59.3421 -8.10451 59.6227 -8.78172C60.0383 -9.78487 61.0984 -9.93255 62.802 -9.22581C63.7725 -8.82391 64.3737 -8.38088 64.6079 -7.8967C64.8421 -7.41253 64.7767 -6.73005 64.4117 -5.85031L63.3822 -3.36826C63.206 -2.94422 63.2366 -2.68367 63.4729 -2.58557C63.7503 -2.47059 64.0868 -2.82291 64.4845 -3.64252L64.6628 -3.55392C64.3326 -2.85034 63.994 -2.41257 63.6459 -2.24169C63.2978 -2.07081 62.8548 -2.09718 62.3168 -2.31975C61.339 -2.72586 60.9012 -3.26067 61.0046 -3.92416C60.7704 -3.65834 60.5162 -3.4959 60.244 -3.43683C59.9708 -3.37776 59.6312 -3.43261 59.2229 -3.60244C58.0162 -4.10243 57.6175 -4.8461 58.0267 -5.83238C58.2673 -6.41148 58.6618 -6.71317 59.2124 -6.73849C59.762 -6.7638 60.5151 -6.57815 61.4687 -6.18258V-6.18047ZM60.0837 -4.03176C60.0774 -3.89147 60.1375 -3.79442 60.2641 -3.74168C60.3907 -3.68894 60.552 -3.74379 60.7482 -3.90623C60.9444 -4.06868 61.1185 -4.33344 61.2704 -4.69947L61.7419 -5.8366L61.6565 -5.87246C61.1512 -6.08237 60.744 -5.8155 60.4371 -5.07394L60.3559 -4.8788C60.1797 -4.45475 60.089 -4.17205 60.0837 -4.03176Z" fill="#EC008C"/>
<path d="M67.7144 0.459763L67.8379 0.256176L68.3589 0.571575L68.668 -2.83029L68.418 -2.90413L66.8632 -0.332426L67.3843 -0.0170269L67.2609 0.186556L64.0098 -1.77967L64.1332 -1.98325L64.7567 -1.60668L69.648 -9.69521L68.9792 -10.0992L69.1026 -10.3028L71.8779 -8.62455L68.5551 -3.12987L68.7777 -3.08873L72.6078 -3.66573L71.5425 -4.30918L71.6659 -4.51277L73.8979 -3.16362L73.7745 -2.96004L72.9813 -3.43999L70.9412 -3.11088L70.5794 1.91439L70.9876 2.16122L70.8642 2.36481L67.7144 0.460815V0.459763Z" fill="#EC008C"/>
<path d="M72.6469 1.48191L75.2513 -1.77545L74.6827 -2.23009L74.8315 -2.41574L75.4 -1.9611L76.4665 -3.29442L78.7702 -2.2322L77.323 -0.423141L78.6669 0.651745L78.5181 0.837399L77.1743 -0.237488L74.3884 3.24666C74.1289 3.5705 73.9718 3.83421 73.9159 4.03885C73.86 4.24243 73.9359 4.42703 74.1427 4.59264C74.3494 4.75825 74.6131 4.79939 74.9338 4.71605C75.2545 4.63378 75.5815 4.4323 75.9169 4.11163L76.0762 4.27302C75.6405 4.70445 75.1869 4.96078 74.7154 5.042C74.2439 5.12323 73.7218 4.93441 73.15 4.47661C72.5783 4.0188 72.2313 3.55573 72.11 3.08527C71.9887 2.61481 72.168 2.08 72.6469 1.48085V1.48191Z" fill="#EC008C"/>
<path d="M79.4991 5.86478L79.7681 6.13904L80.497 5.42596C81.0962 4.83947 81.4654 4.41226 81.6057 4.14538C81.746 3.87851 81.7238 3.65066 81.5381 3.46079C81.4274 3.34687 81.2966 3.27408 81.1468 3.24138C80.997 3.20868 80.8704 3.24349 80.766 3.34476C80.6616 3.44602 80.5751 3.56944 80.5044 3.71184L80.7365 3.94813C80.6531 4.12851 80.5192 4.30994 80.3325 4.49137C80.1468 4.67386 79.9084 4.75192 79.6183 4.72766C79.3282 4.70234 79.0656 4.57048 78.8314 4.33104C78.3008 3.78885 78.2966 3.26143 78.8198 2.74877C79.5951 1.98928 80.6289 2.26882 81.9189 3.58632C82.6531 4.33631 83.0339 4.98082 83.0592 5.51773C83.0845 6.05465 82.7565 6.65697 82.0761 7.32363L80.1553 9.20336C79.8272 9.52403 79.7523 9.77614 79.9316 9.95968C80.1415 10.1738 80.5898 9.98183 81.2766 9.38373L81.4063 9.53458C80.8261 10.0525 80.343 10.3225 79.9559 10.3426C79.5688 10.3637 79.1711 10.1654 78.7639 9.74976C78.0234 8.99344 77.8304 8.32994 78.1859 7.75928C77.8662 7.91223 77.5688 7.96181 77.2945 7.90906C77.0203 7.85632 76.7291 7.67172 76.4201 7.35633C75.5066 6.42279 75.4306 5.58313 76.1943 4.83525C76.6416 4.39644 77.1236 4.27407 77.6394 4.46711C78.1553 4.66015 78.7745 5.12533 79.497 5.86267L79.4991 5.86478ZM77.3821 7.29831C77.3209 7.42595 77.3388 7.53776 77.4348 7.63586C77.5308 7.73396 77.7006 7.74662 77.9443 7.67383C78.189 7.60105 78.4527 7.42595 78.7365 7.14852L79.6162 6.28671L79.5519 6.22026C79.169 5.82891 78.6901 5.91436 78.1173 6.47659L77.9654 6.62427C77.6373 6.94494 77.4432 7.16962 77.3821 7.29725V7.29831Z" fill="#EC008C"/>
<path d="M85.2343 7.2424L87.1035 9.82888L86.1162 10.542C86.5276 10.4185 86.9189 10.4027 87.2902 10.4934C87.6605 10.5852 88.0202 10.87 88.3661 11.3489C89.1678 12.4575 88.9706 13.4438 87.7765 14.3067L84.5466 16.6411L84.9812 17.2423L84.7881 17.3816L82.594 14.3447L82.7871 14.2054L83.1046 14.6453L86.5919 12.1253C87.0212 11.8151 87.2775 11.5862 87.3609 11.4386C87.4442 11.2909 87.4326 11.1422 87.324 10.9913C87.1583 10.7624 86.8619 10.6685 86.4358 10.7107C86.0086 10.7529 85.5803 10.9291 85.151 11.2392L82.189 13.3795L82.5223 13.8404L82.3293 13.9797L80.1268 10.9322L80.3198 10.793L80.746 11.3837L85.4674 7.97235L85.0413 7.38164L85.2343 7.2424Z" fill="#EC008C"/>
<path d="M86.0571 20.0841L88.2005 19.0735L88.2681 19.217C87.671 19.7518 87.3155 20.2613 87.2027 20.7433C87.0887 21.2265 87.1562 21.7317 87.4041 22.2581C87.7881 23.0724 88.2396 23.3572 88.7586 23.1125C88.9822 23.007 89.1024 22.8288 89.1204 22.5756C89.1488 22.1811 89.0972 21.718 88.9632 21.1864C88.8514 20.5756 88.8282 20.0303 88.8946 19.5503C88.9748 18.9754 89.3271 18.5419 89.9495 18.2486C90.5718 17.9554 91.1594 17.9121 91.7111 18.121C92.2627 18.3288 92.6889 18.7528 92.9906 19.391C93.1752 19.7824 93.2733 20.2286 93.2849 20.7307C93.2923 20.9121 93.3155 21.0429 93.3524 21.1231C93.3904 21.2033 93.4494 21.257 93.5328 21.2876C93.6151 21.3172 93.7511 21.3362 93.9399 21.3446L94.0022 21.4765L92.1699 22.3404L92.1024 22.1969C92.9484 21.3003 93.1699 20.4258 92.767 19.5714C92.5897 19.1959 92.3925 18.948 92.1741 18.8267C91.9558 18.7054 91.7469 18.6917 91.5476 18.7855C91.4273 18.8415 91.3471 18.9142 91.306 19.0018C91.2649 19.0893 91.2353 19.1569 91.2185 19.2043C91.2016 19.2507 91.1921 19.3193 91.19 19.4079C91.1879 19.4965 91.1879 19.5693 91.19 19.6273C91.1921 19.6843 91.2016 19.7708 91.2163 19.8857C91.2311 20.0007 91.2459 20.0841 91.2607 20.1357C91.3809 20.7423 91.4473 21.1895 91.46 21.4754C91.4727 21.7623 91.459 22.0471 91.4168 22.3298C91.3197 22.9121 90.9347 23.3615 90.2607 23.68C89.5855 23.9986 88.9811 24.0387 88.4453 23.8034C87.9094 23.5682 87.478 23.103 87.151 22.4079C86.9179 21.9132 86.8082 21.3794 86.8208 20.8077C86.8398 20.6822 86.8356 20.5904 86.8092 20.5355C86.7269 20.3594 86.498 20.2581 86.1236 20.2296L86.0561 20.0862L86.0571 20.0841Z" fill="#231F20"/>
<path d="M94.3861 22.8499L95.4726 25.9057L89.7596 27.9363L90.0075 28.6346L89.7828 28.7148L88.4653 25.0102L88.69 24.93L88.9337 25.6157L94.422 23.6642L94.1604 22.9279L94.3851 22.8478L94.3861 22.8499Z" fill="#231F20"/>
<path d="M90.9147 33.1567L91.1478 33.105L91.2796 33.7L93.9526 31.5713L93.8334 31.3403L90.8999 31.9943L91.0328 32.5882L90.7997 32.6399L89.9737 28.931L90.2058 28.8793L90.364 29.5903L99.5897 27.5344L99.4199 26.7718L99.653 26.7201L100.359 29.8857L94.0918 31.2823L94.2153 31.4721L97.2796 33.8413L97.0085 32.6261L97.2416 32.5745L97.8091 35.1198L97.576 35.1715L97.3745 34.2664L95.7269 33.0196L91.845 36.2316L91.9484 36.6968L91.7153 36.7485L90.9147 33.1557V33.1567Z" fill="#231F20"/>
<path d="M97.8872 36.2949L98.2036 39.5227L92.1689 40.1134L92.2406 40.8508L92.0033 40.874L91.6203 36.9605L91.8577 36.9373L91.9284 37.662L97.7258 37.0945L97.6498 36.317L97.8872 36.2938V36.2949Z" fill="#231F20"/>
<path d="M101.947 41.0195L102 44.2621L92.3102 44.4193L92.3218 45.1608L92.0834 45.1651L92.0201 41.2337L92.2585 41.2294L92.2701 41.9573L101.722 41.8043L101.709 41.0238L101.947 41.0195Z" fill="#231F20"/>
<path d="M98.6013 46.2231L98.1614 49.3834L96.9547 49.2157C97.806 49.6281 98.1635 50.3264 98.0264 51.3095C97.8893 52.2926 97.3344 52.8243 96.3608 52.9023C97.2627 53.3401 97.6446 54.0479 97.5085 55.0268C97.3292 56.3116 96.5106 56.8527 95.0507 56.6491L91.1035 56.0996L91.0012 56.8337L90.7649 56.801L91.2701 53.1692L91.5064 53.2019L91.4421 53.6608L95.7037 54.2536C96.3682 54.3464 96.7648 54.3433 96.8946 54.2452C96.9547 54.1998 96.9906 54.1333 97.0022 54.0458C97.037 53.7926 96.8977 53.5458 96.5834 53.3064C96.269 53.0669 95.8503 52.9097 95.326 52.8369L91.6288 52.3222L91.5634 52.7947L91.3271 52.762L91.7965 49.3918L92.0328 49.4245L91.9685 49.8834L96.23 50.4762C96.8946 50.569 97.2912 50.5659 97.4209 50.4678C97.4811 50.4224 97.5169 50.356 97.5285 50.2684C97.5623 50.0237 97.4072 49.7768 97.0633 49.529C96.7195 49.2811 96.2891 49.1207 95.7733 49.049L92.1541 48.5448L92.0887 49.0163L91.8524 48.9836L92.3577 45.3518L92.594 45.3845L92.4938 46.106L98.2627 46.9087L98.3629 46.1872L98.5992 46.2199L98.6013 46.2231Z" fill="#231F20"/>
<path d="M92.4853 60.8242L92.364 61.1881L93.3303 61.512C94.1256 61.7778 94.6731 61.9128 94.9748 61.916C95.2764 61.9192 95.4684 61.7947 95.5528 61.5436C95.6034 61.3928 95.6087 61.244 95.5697 61.0953C95.5307 60.9476 95.442 60.8506 95.3039 60.8042C95.1657 60.7578 95.0169 60.7356 94.8577 60.7388L94.7522 61.0531C94.5539 61.0616 94.3313 61.0236 94.0845 60.9413C93.8376 60.859 93.6594 60.6829 93.5497 60.4128C93.44 60.1428 93.4378 59.8495 93.5444 59.532C93.7849 58.8126 94.2532 58.569 94.9473 58.801C95.9769 59.146 96.1984 60.1924 95.614 61.9413C95.2807 62.9371 94.8809 63.5689 94.4146 63.8358C93.9484 64.1027 93.2627 64.0858 92.3587 63.7831L89.8102 62.9307C89.3746 62.7852 89.1172 62.8337 89.036 63.0763C88.9411 63.3611 89.3155 63.6723 90.1615 64.0109L90.0856 64.1955C89.3598 63.916 88.8999 63.6079 88.7048 63.2725C88.5096 62.9371 88.5043 62.494 88.69 61.9413C89.0265 60.9371 89.5286 60.4635 90.1984 60.5194C89.9168 60.3042 89.7374 60.0626 89.6594 59.7947C89.5813 59.5268 89.613 59.1829 89.7522 58.7652C90.1668 57.5268 90.8799 57.0764 91.8925 57.416C92.4864 57.6143 92.8155 57.9877 92.8788 58.5352C92.9421 59.0827 92.8102 59.8453 92.4822 60.8253L92.4853 60.8242ZM90.2448 59.5932C90.1045 59.5974 90.0117 59.6639 89.9685 59.7936C89.9252 59.9234 89.9906 60.0806 90.1668 60.2652C90.3429 60.4498 90.6183 60.6048 90.9948 60.7314L92.1625 61.1217L92.1921 61.0341C92.3661 60.5152 92.0718 60.128 91.3102 59.8738L91.1098 59.8063C90.6741 59.6607 90.3862 59.59 90.2459 59.5943L90.2448 59.5932Z" fill="#231F20"/>
<path d="M86.2185 67.6786L87.1109 67.9687C86.6172 67.3811 86.5782 66.6786 86.9938 65.86C87.3377 65.1828 87.8482 64.782 88.5265 64.6565C89.2037 64.5309 90.0265 64.7134 90.9948 65.205C92.9537 66.2008 93.538 67.4771 92.7469 69.0351C92.3957 69.7271 91.9706 70.0857 91.4727 70.11L94.9547 71.879L95.3207 71.1585L95.5328 71.2661L94.0338 74.2165L85.3936 69.8273L85.0993 70.4054L84.8873 70.2978L86.2185 67.6775V67.6786ZM87.7712 66.5963C87.4558 66.5446 87.2396 66.6354 87.1214 66.8674C87.0033 67.0995 87.0033 67.3516 87.1214 67.6248C87.2396 67.898 87.5001 68.1364 87.901 68.34L90.4737 69.6469C90.8123 69.8189 91.133 69.898 91.4368 69.8843C91.7406 69.8706 91.959 69.7334 92.0908 69.4739C92.2227 69.2144 92.1393 68.9497 91.8408 68.6786C91.5423 68.4085 90.9611 68.0531 90.095 67.6132L89.4811 67.301C88.6552 66.8811 88.0845 66.6459 87.7691 66.5942L87.7712 66.5963Z" fill="#231F20"/>
<path d="M89.8978 74.0003L88.0993 76.6996L83.0529 73.3378L82.6415 73.9549L82.4432 73.823L84.6225 70.5509L84.8208 70.6828L84.4168 71.2883L89.2649 74.5171L89.6974 73.8673L89.8957 73.9992L89.8978 74.0003Z" fill="#231F20"/>
<path d="M87.1489 78.2238L85.074 80.6479L84.1489 79.8557C84.3651 80.227 84.4727 80.6036 84.4706 80.9854C84.4685 81.3673 84.2755 81.7829 83.8915 82.2322C83.0023 83.2713 81.997 83.3114 80.8778 82.3536L77.8504 79.7618L77.3684 80.3251L77.1869 80.17L79.6236 77.3241L79.8051 77.4791L79.4517 77.8916L82.7196 80.6901C83.1215 81.035 83.4042 81.2301 83.5677 81.2766C83.7312 81.323 83.8725 81.2766 83.9938 81.1352C84.1774 80.9211 84.1985 80.611 84.0582 80.2059C83.9179 79.8008 83.6457 79.4253 83.2438 79.0814L80.4686 76.7049L80.0983 77.1374L79.9169 76.9823L82.362 74.1268L82.5434 74.2819L82.0698 74.8346L86.4949 78.6236L86.9685 78.0709L87.1499 78.226L87.1489 78.2238Z" fill="#231F20"/>
<path d="M81.2787 84.8134L78.8884 87.0065L74.7893 82.5392L74.2429 83.0403L74.0815 82.8641L76.9781 80.2059L77.1395 80.381L76.6025 80.8736L80.5413 85.1658L81.1173 84.6373L81.2787 84.8124V84.8134Z" fill="#231F20"/>
<path d="M72.6754 91.8303L72.534 91.6383L71.611 85.0867L71.4728 85.189C70.8758 85.6278 70.5214 86.1299 70.4096 86.6932C70.2977 87.2565 70.4053 87.9611 70.7313 88.8071L70.5815 88.9168L69.1448 86.6046L73.6247 83.3114L73.7429 83.4717L74.6469 90.0866L74.7639 90.0001C75.4823 89.4716 75.8958 88.9875 76.0034 88.5465C76.112 88.1056 75.9939 87.42 75.65 86.4896L75.7882 86.3873L77.1553 88.537L72.6754 91.8303Z" fill="#231F20"/>
<path d="M68.8494 94.4009L65.9159 95.6551L65.437 94.5349C65.5235 95.4769 65.11 96.1435 64.1965 96.5338C63.2841 96.9241 62.5425 96.7226 61.9729 95.9294C62.0636 96.9273 61.6544 97.6203 60.7461 98.0096C59.5531 98.5201 58.667 98.0971 58.0879 96.7416L56.5215 93.0782L55.8401 93.3693L55.7462 93.1499L59.1185 91.7079L59.2124 91.9273L58.7862 92.1098L60.4782 96.0655C60.7419 96.6825 60.9487 97.0212 61.0995 97.0813C61.1691 97.1087 61.244 97.1056 61.3252 97.0707C61.5605 96.9705 61.6997 96.7237 61.743 96.3302C61.7862 95.9378 61.7039 95.498 61.4951 95.0106L60.0278 91.5782L59.59 91.7659L59.4961 91.5465L62.6248 90.209L62.7187 90.4284L62.2925 90.6109L63.9845 94.5665C64.2482 95.1836 64.455 95.5222 64.6058 95.5824C64.6754 95.6098 64.7503 95.6066 64.8316 95.5718C65.0594 95.4747 65.1902 95.2142 65.225 94.7912C65.2598 94.3682 65.1754 93.9178 64.9708 93.4389L63.5341 90.0792L63.0963 90.267L63.0024 90.0476L66.3737 88.6056L66.4676 88.825L65.7978 89.1109L68.0878 94.4674L68.7577 94.1815L68.8516 94.4009H68.8494Z" fill="#231F20"/>
<path d="M57.1312 99.0021L53.9867 99.7986L52.4973 93.921L51.7789 94.1035L51.7209 93.8724L55.5321 92.9062L55.5911 93.1372L54.8854 93.3165L56.3169 98.9631L57.0742 98.7711L57.1323 99.0021H57.1312Z" fill="#231F20"/>
<path d="M51.222 102.964C50.7568 103.417 50.0448 103.707 49.087 103.833C48.1292 103.96 47.3655 103.873 46.7958 103.575C46.2273 103.276 45.895 102.768 45.8001 102.051C45.7378 101.578 45.799 101.145 45.9826 100.751C46.1661 100.358 46.4393 99.9452 46.8011 99.5148L48.5511 97.4948L48.4509 96.7332L48.779 96.6899L49.1429 99.4462C49.1629 99.595 49.1302 99.7237 49.0469 99.8323L48.3422 100.767C48.1218 101.054 47.9783 101.315 47.9119 101.552C47.8454 101.788 47.8349 102.084 47.8823 102.444C47.9941 103.292 48.4446 103.666 49.2315 103.561C49.6081 103.512 49.8697 103.374 50.0184 103.15C50.1671 102.925 50.2294 102.722 50.2051 102.538C50.1808 102.354 50.1334 102.195 50.0627 102.062L49.6429 102.118C49.549 101.944 49.4846 101.727 49.4498 101.469C49.4161 101.211 49.4962 100.974 49.6893 100.756C49.8834 100.539 50.1597 100.407 50.5184 100.36C50.877 100.312 51.1703 100.391 51.3981 100.597C51.626 100.803 51.762 101.081 51.8085 101.43C51.8833 101.999 51.6882 102.51 51.223 102.963L51.222 102.964ZM48.3233 94.306C48.6513 94.2627 48.9087 94.3239 49.0954 94.4906C49.2821 94.6572 49.3939 94.883 49.4319 95.1678C49.4699 95.4515 49.4129 95.6994 49.2631 95.9115C49.1133 96.1224 48.8855 96.248 48.5785 96.2891C48.2726 96.3292 48.0163 96.2807 47.8117 96.1435C47.607 96.0053 47.4836 95.7796 47.4414 95.4642C47.4003 95.1488 47.4541 94.8883 47.6049 94.6815C47.7558 94.4748 47.9952 94.3492 48.3233 94.306Z" fill="#231F20"/>
</svg>
