<svg width="25" height="25" viewBox="0 0 25 25" fill="none" xmlns="http://www.w3.org/2000/svg">
<path d="M10.6442 14.6346L14.3558 12.5L10.6442 10.3654V14.6346Z" fill="#282B37"/>
<path d="M12.5 0C5.59615 0 0 5.59615 0 12.5C0 19.4038 5.59615 25 12.5 25C19.4038 25 25 19.4038 25 12.5C25 5.59615 19.4038 0 12.5 0ZM20.6731 15.1875C20.6731 16.7788 19.3798 18.0721 17.7885 18.0721H7.21154C5.62019 18.0721 4.32692 16.7788 4.32692 15.1875V9.8125C4.32692 8.22115 5.62019 6.92788 7.21154 6.92788H17.7885C19.3798 6.92788 20.6731 8.22115 20.6731 9.8125V15.1875Z" fill="#282B37"/>
</svg>
